<?xml version="1.0" encoding="UTF-8" standalone="no"?>
<!-- Created with Inkscape (http://www.inkscape.org/) -->

<svg
   xmlns:dc="http://purl.org/dc/elements/1.1/"
   xmlns:cc="http://creativecommons.org/ns#"
   xmlns:rdf="http://www.w3.org/1999/02/22-rdf-syntax-ns#"
   xmlns:svg="http://www.w3.org/2000/svg"
   xmlns="http://www.w3.org/2000/svg"
   xmlns:sodipodi="http://sodipodi.sourceforge.net/DTD/sodipodi-0.dtd"
   xmlns:inkscape="http://www.inkscape.org/namespaces/inkscape"
   width="79.540573mm"
   height="79.450691mm"
   viewBox="0 0 79.541846 79.449377"
   version="1.1"
   style="enable-background:new"
   id="svg15"
   sodipodi:docname="tavern-barrel.svg"
   inkscape:export-filename="/home/dev/tavern-web/static/vectors/tavern-barrel.svg.png"
   inkscape:export-xdpi="163.49883"
   inkscape:export-ydpi="163.49883"
   inkscape:version="0.92.2pre0 (973e216, 2017-07-25)">
  <metadata
     id="metadata21">
    <rdf:RDF>
      <cc:Work
         rdf:about="">
        <dc:format>image/svg+xml</dc:format>
        <dc:type
           rdf:resource="http://purl.org/dc/dcmitype/StillImage" />
        <dc:title>Taven logo</dc:title>
      </cc:Work>
    </rdf:RDF>
  </metadata>
  <defs
     id="defs19" />
  <sodipodi:namedview
     pagecolor="#ffffff"
     bordercolor="#666666"
     borderopacity="1"
     objecttolerance="10"
     gridtolerance="10"
     guidetolerance="10"
     inkscape:pageopacity="0"
     inkscape:pageshadow="2"
     inkscape:window-width="1366"
     inkscape:window-height="740"
     id="namedview17"
     showgrid="false"
     inkscape:zoom="1.4551745"
     inkscape:cx="261.13551"
     inkscape:cy="117.92853"
     inkscape:window-x="0"
     inkscape:window-y="0"
     inkscape:window-maximized="1"
     inkscape:current-layer="svg15" />
  <title
     id="title229">Taven logo</title>
  <g
     id="sign-barrel"
     style="display:inline"
     transform="translate(-88.031465,-118.56169)">
    <path
       style="display:inline;fill:#000000;stroke-width:0.47590908"
       d="m 127.86811,118.56089 c -13.92521,-0.0129 -27.913122,0.0797 -30.64733,0.32695 l -1.763051,3.27443 c -3.07183,5.70453 -5.937404,15.8766 -7.071711,25.10305 -0.647157,5.26399 -0.362982,19.96311 0.484507,25.04727 1.515539,9.0919 3.138564,14.696 6.097818,21.05898 l 2.157625,4.64011 h 30.618052 30.61736 l 1.37545,-2.73624 c 1.80913,-3.5992 4.77042,-11.5646 5.03539,-13.54389 0.11533,-0.86156 0.52603,-3.06512 0.91255,-4.89737 3.92326,-18.59769 1.5995,-40.74407 -5.72207,-54.5304 l -1.82579,-3.43685 c -2.48144,-0.17472 -16.34358,-0.29324 -30.2688,-0.30604 z m 10.60688,2.82896 c 2.6803,0.0225 2.56596,0.39118 3.00045,4.84019 l 0.31022,3.17335 -3.66482,0.15824 c -2.17298,0.0936 -3.72111,-0.0365 -3.80285,-0.31858 -0.0759,-0.26176 -0.27082,-2.13541 -0.43362,-4.16397 l -0.29628,-3.68853 h 3.55677 c 0.50669,0 0.94722,-0.004 1.33013,-7.2e-4 z m -10.56226,7.1e-4 c 3.19489,0 3.0969,-0.13283 3.6,4.87854 l 0.32207,3.21238 h -3.92834 -3.92834 l 0.33183,-3.66064 c 0.18244,-2.01311 0.4387,-3.8337 0.56956,-4.04547 0.13088,-0.21176 1.4958,-0.38481 3.03322,-0.38481 z m -6.6367,0.25934 c 0.76178,10e-4 0.69728,0.41117 0.42804,5.33306 l -0.13663,2.49852 h -3.79171 -3.79101 l 0.31929,-2.71672 c 0.1756,-1.49412 0.442,-3.20787 0.59256,-3.80774 0.28237,-1.125 0.21816,-1.111 6.00092,-1.29458 0.14437,-0.004 0.26971,-0.0127 0.37854,-0.0125 z m -13.32569,0.20774 c 0.30695,0.002 0.66129,0.009 1.07359,0.009 h 2.98093 l -0.50751,3.68853 -0.50751,3.68783 -3.19636,0.14082 c -3.54383,0.15602 -3.46623,0.24912 -2.70486,-3.234 0.90093,-4.12157 0.7131,-4.30961 2.86172,-4.29224 z m -9.126163,0.009 h 2.069093 2.06909 l -0.7041,3.80704 -0.70411,3.80774 h -2.999756 c -1.649763,0 -2.999762,-0.12176 -2.999762,-0.26979 0,-0.14803 0.735684,-1.86107 1.634774,-3.80704 z m 47.774493,0 h 3.07993 l 0.58978,2.97466 c 0.3245,1.63595 0.68991,3.34898 0.81145,3.80704 0.19481,0.73437 -0.16937,0.83308 -3.07714,0.83308 h -3.29813 l -0.31929,-2.71673 c -0.17559,-1.49412 -0.44199,-3.20786 -0.59256,-3.80774 -0.26423,-1.05276 -0.16708,-1.09031 2.80596,-1.09031 z m 8.13065,0 h 2.12904 l 1.47235,3.53585 c 0.80968,1.94494 1.47235,3.65867 1.47235,3.80774 0,0.1491 -1.25766,0.27119 -2.79411,0.27119 h -2.79341 l -0.56468,-2.97467 c -0.31073,-1.63594 -0.67442,-3.34897 -0.80798,-3.80704 -0.20568,-0.70522 0.0833,-0.83307 1.88644,-0.83307 z m -60.149978,10.47023 h 33.291558 33.29156 l 0.58211,2.60101 c 0.3202,1.43074 0.54927,2.76947 0.50961,2.97466 -0.0321,0.16587 -11.60514,0.85566 -26.07486,1.11402 l 4.14515,2.39325 2.90566,0.0286 c 0,0.59427 -0.004,1.08147 -0.004,1.64593 l 3.41804,1.97359 -0.0739,-3.68923 h 3.24794 3.24723 l 0.38622,3.21239 c 0.50339,4.18258 0.51598,25.86983 0.0167,28.79296 l -0.38551,2.2601 h -3.27443 c -1.80076,0 -3.38364,-0.17757 -3.51773,-0.39458 -0.0978,-0.15828 -0.0602,-1.43871 0.0733,-3.12106 l -3.32532,1.9206 c 0.004,0.39415 0.004,0.73142 0.01,1.14051 -0.49757,-0.0304 -1.16303,-0.0432 -1.90247,-0.0481 l -5.39861,3.11688 26.98322,0.003 -0.24261,1.19001 c -0.13345,0.65424 -0.58106,1.99245 -0.9941,2.97396 l -0.75082,1.78397 H 127.70706 94.67274 l -0.736172,-1.47583 c -0.404872,-0.8116 -0.862782,-2.15177 -1.017813,-2.97815 l -0.282336,-1.50232 28.164161,0.003 -4.74679,-2.74113 c -1.41797,-0.0428 -2.64744,-0.11515 -3.53795,-0.23911 -0.15345,-0.24831 -0.31073,-0.99943 -0.4601,-2.0691 l -2.77389,-1.60131 c 0.10872,1.81956 0.19475,3.13885 0.22169,3.29047 0.10597,0.59649 -6.60822,0.99319 -6.94972,0.41061 -0.44365,-0.75683 -0.89257,-8.8263 -0.89162,-16.03823 7.1e-4,-6.86083 0.20819,-10.78397 0.83864,-15.86743 l 0.25096,-2.02308 h 3.33997 3.34066 l -0.32137,2.99907 c -0.0406,0.37879 -0.0729,0.80299 -0.10806,1.21161 l 3.04716,-1.75887 c 0.12488,-1.32066 0.24312,-2.18922 0.33463,-2.27056 0.0358,-0.0318 1.77856,-0.20316 3.87257,-0.37994 l 0.37715,0.003 3.79448,-2.19039 -27.337344,-0.70759 0.280945,-1.75677 c 0.154491,-0.9662 0.489197,-2.30492 0.743838,-2.97467 z m 0.08297,9.02927 c 0.40479,0.003 0.872503,0.0125 1.415178,0.0125 h 3.778449 l -0.355537,1.30921 c -0.475741,1.74878 -0.473688,21.94117 0.0033,28.0784 l 0.378544,4.87784 h -3.843983 c -2.648692,0 -3.907797,-0.18476 -4.048946,-0.59466 -1.226567,-3.56197 -1.649893,-19.92307 -0.704801,-27.24602 0.794544,-6.1565 0.544782,-6.45813 3.378306,-6.43733 z m 61.248658,0.0125 h 3.57907 c 2.99727,0 3.61968,0.13562 3.82656,0.83306 1.75686,5.92093 1.76062,30.19811 0.006,33.03781 h -7.2e-4 c -0.13417,0.21707 -1.85863,0.39458 -3.83214,0.39458 h -3.58814 l 0.32975,-5.35398 c 0.46283,-7.50494 0.49505,-24.46394 0.0508,-26.88839 z m -31.87498,45.64613 3.70456,0.13943 3.70524,0.13942 -0.13244,2.47134 c -0.0728,1.35912 -0.29255,3.07216 -0.488,3.80704 -0.32927,1.23808 -0.55108,1.34679 -3.01717,1.47793 -3.01323,0.16014 -2.83764,0.42687 -3.46755,-5.278 z m -26.656954,0.0397 c 0.327381,-0.003 0.707561,0.001 1.143297,0.001 h 3.031827 l 0.70759,3.82795 c 0.38943,2.10522 0.61044,3.92511 0.49078,4.04477 -0.11965,0.11959 -1.04779,0.2182 -2.06211,0.2182 -1.804368,0 -1.872849,-0.0653 -3.190082,-3.00116 -2.10694,-4.69593 -2.412966,-5.07081 -0.121302,-5.09115 z m 7.142824,0.001 h 3.30022 3.30023 l 0.30882,2.97466 c 0.16968,1.63593 0.36077,3.40275 0.42525,3.92625 0.10455,0.84892 -0.19974,0.96694 -2.8185,1.09241 l -2.93632,0.14082 -0.53749,-2.75855 c -0.29571,-1.51702 -0.65109,-3.34655 -0.78986,-4.06637 z m 9.458,0 h 3.56931 3.56932 l 0.30604,2.92517 c 0.16815,1.60888 0.30534,3.42947 0.30534,4.04546 0,1.06154 -0.16169,1.1196 -3.10502,1.1196 -2.91985,-1e-5 -3.13388,-0.0745 -3.58396,-1.25833 -0.26327,-0.69244 -0.60946,-2.51301 -0.76964,-4.04546 z m 20.65811,0 h 3.5742 3.57491 l -0.33951,2.71394 c -0.18646,1.4924 -0.48412,3.25923 -0.66158,3.92625 -0.29839,1.12145 -0.55441,1.22302 -3.4034,1.35104 -1.69455,0.0761 -3.21612,0.003 -3.38109,-0.16174 -0.16499,-0.16497 -0.21629,-0.97686 -0.11364,-1.80417 0.10257,-0.82732 0.31356,-2.52119 0.46847,-3.76452 z m 10.06659,0 h 3.23609 3.23609 l -0.28234,1.78466 c -0.15511,0.98155 -0.5166,2.74838 -0.8031,3.92625 l -0.52075,2.14159 -3.03881,0.14361 -3.03879,0.14291 0.30952,-1.54554 c 0.17006,-0.85029 0.44267,-2.68185 0.60581,-4.06986 z m 9.51865,0 h 2.78992 c 1.65692,0 2.78993,0.20632 2.78993,0.50751 0,0.2789 -0.73569,2.09879 -1.63478,4.04477 -1.57857,3.41657 -1.69246,3.53864 -3.30371,3.53864 -0.91771,0 -1.76725,-0.16063 -1.88853,-0.35693 -0.12124,-0.19632 0.10937,-2.01691 0.51308,-4.04546 z"
       id="barrel"
       inkscape:connector-curvature="0">
      <title
         id="title221">Sign barrel</title>
    </path>
  </g>
  <g
     id="sign-dice"
     style="display:inline"
     transform="translate(-88.031465,-118.56169)">
    <g
       id="g3829"
       transform="rotate(180,104.97101,143.3882)"
       style="fill:#000000" />
    <g
       id="dice"
       transform="matrix(0.53454076,0,0,0.53454076,103.28573,133.12689)"
       style="fill:#005000;fill-opacity:1">
      <title
         id="title227">Sign dice</title>
      <g
         id="g3900"
         transform="translate(-3.25,-954.86216)"
         style="fill:#005000;fill-opacity:1">
        <path
           id="path3898"
           d="m 49.999999,957.36216 -38.971335,22.4997 v 45.00064 l 1.290604,0.7457 37.680731,21.754 38.971337,-22.4997 v -45.00064 z m 0,7.5949 c 7.201114,7.23737 11.952236,14.47474 15.565861,23.0246 -10.002094,1.87574 -20.538854,1.42814 -31.131722,0 3.438626,-8.54986 8.277247,-16.31223 15.565861,-23.0246 z m -8.4251,3.2361 c -2.778862,7.3606 -6.432721,13.8462 -12.799072,18.9318 -4.644425,-0.61104 -7.976354,-3.14707 -9.995787,-5.7706 6.723289,-6.04956 14.409075,-10.34913 22.794859,-13.1612 z m 16.851427,0 c 8.997873,3.24914 16.245751,7.37327 22.793632,13.1599 -2.019003,2.71103 -5.438001,4.63456 -9.994495,5.7706 -6.016373,-6.04767 -10.020253,-12.18283 -12.799137,-18.9305 z m -42.230078,17.6348 c 4.819833,0.96107 7.889672,2.88464 9.997014,5.7707 -0.969846,7.55058 -4.564683,13.78864 -9.997014,20.55174 -2.028318,-9.1429 -1.848628,-17.59804 0,-26.32244 z m 67.607502,0 c 1.546791,8.96019 1.423048,17.98224 0,26.32374 -4.995902,-6.6798 -8.069108,-13.06367 -9.997079,-20.55304 2.544432,-3.06106 5.613861,-5.07213 9.995787,-5.7707 4.31e-4,0 8.61e-4,0 0.0013,0 z m -49.759442,7.32 c 10.637127,-1.42305 20.841153,-1.48492 31.911382,0 -3.709901,9.83104 -9.275951,19.04334 -15.955691,27.63694 -7.174713,-8.2842 -12.122047,-17.8059 -15.955691,-27.63694 z m -4.280633,2.9219 c 6.797692,8.43004 11.862979,17.47884 15.567089,26.96074 -9.983392,0.5814 -18.358121,0.1729 -27.722796,-1.9681 2.44324,-8.764 6.309527,-17.3423 12.155707,-24.99264 z m 40.472648,0 c 5.970333,8.02154 9.960773,16.22864 12.156935,24.99264 -9.634754,2.494 -17.478795,3.0247 -27.722732,1.9681 3.703679,-9.7294 8.459177,-18.4688 15.565797,-26.96074 z M 24.618764,1026.741 c 7.908506,-0.5737 14.950809,-0.034 22.797443,1.6199 1.423048,3.7857 1.051818,7.6951 0,11.5426 -8.960324,-3.2738 -16.064498,-7.5376 -22.797443,-13.1625 z m 50.763697,0 c -6.300252,5.6249 -14.085424,10.1362 -22.79867,13.1625 -1.175561,-3.9094 -1.361176,-7.6951 0,-11.5426 7.785172,-1.7155 14.580397,-2.3792 22.79867,-1.6199 z"
           style="clip-rule:nonzero;display:inline;overflow:visible;visibility:visible;opacity:1;isolation:auto;mix-blend-mode:normal;color-interpolation:sRGB;color-interpolation-filters:linearRGB;solid-color:#000000;solid-opacity:1;fill:#005000;fill-opacity:1;fill-rule:nonzero;stroke:none;stroke-width:8;stroke-linecap:round;stroke-linejoin:miter;stroke-miterlimit:4;stroke-dasharray:none;stroke-dashoffset:0;stroke-opacity:1;marker:none;color-rendering:auto;image-rendering:auto;shape-rendering:auto;enable-background:accumulate"
           inkscape:connector-curvature="0" />
      </g>
    </g>
  </g>
</svg>
