<?xml version="1.0" encoding="UTF-8" standalone="no"?>
<!-- Created with Inkscape (http://www.inkscape.org/) -->

<svg
   xmlns:dc="http://purl.org/dc/elements/1.1/"
   xmlns:cc="http://creativecommons.org/ns#"
   xmlns:rdf="http://www.w3.org/1999/02/22-rdf-syntax-ns#"
   xmlns:svg="http://www.w3.org/2000/svg"
   xmlns="http://www.w3.org/2000/svg"
   xmlns:sodipodi="http://sodipodi.sourceforge.net/DTD/sodipodi-0.dtd"
   xmlns:inkscape="http://www.inkscape.org/namespaces/inkscape"
   width="121.36806mm"
   height="121.36806mm"
   viewBox="0 0 121.37 121.36605"
   version="1.1"
   style="enable-background:new"
   id="svg15"
   sodipodi:docname="tavern.svg"
   inkscape:export-filename="/home/dev/tavern-web/static/logo/tavern-1024.png"
   inkscape:export-xdpi="214.3035"
   inkscape:export-ydpi="214.3035"
   inkscape:version="0.92.2pre0 (973e216, 2017-07-25)">
  <metadata
     id="metadata21">
    <rdf:RDF>
      <cc:Work
         rdf:about="">
        <dc:format>image/svg+xml</dc:format>
        <dc:type
           rdf:resource="http://purl.org/dc/dcmitype/StillImage" />
        <dc:title>Taven logo</dc:title>
      </cc:Work>
    </rdf:RDF>
  </metadata>
  <defs
     id="defs19" />
  <sodipodi:namedview
     pagecolor="#ffffff"
     bordercolor="#666666"
     borderopacity="1"
     objecttolerance="10"
     gridtolerance="10"
     guidetolerance="10"
     inkscape:pageopacity="0"
     inkscape:pageshadow="2"
     inkscape:window-width="1366"
     inkscape:window-height="740"
     id="namedview17"
     showgrid="false"
     inkscape:zoom="0.51448188"
     inkscape:cx="25.26814"
     inkscape:cy="229.35696"
     inkscape:window-x="0"
     inkscape:window-y="0"
     inkscape:window-maximized="1"
     inkscape:current-layer="svg15" />
  <title
     id="title229">Taven logo</title>
  <g
     id="guild-handle"
     style="display:inline"
     transform="translate(-56.265893,-83.84237)">
    <path
       style="display:inline;stroke-width:0.20782095;image-rendering:auto"
       d="M 17.542969 6.5039062 C 15.246224 6.5190241 12.888737 6.8421023 11.298828 7.0410156 C 8.7618608 7.3581129 7.2347941 8.3982043 6.9433594 10.955078 C 6.4743275 15.070971 6.8150049 19.59915 7.3554688 23.701172 C 7.8473286 27.434318 2.723543 24.946297 2.7773438 27.980469 C 2.8384577 31.430582 1.8650241 36.385194 3.1503906 39.646484 C 3.7484875 41.16408 6.5929257 39.527506 7.4277344 40.876953 C 9.2287261 43.788228 7.9798894 49.84581 8.0429688 53.082031 C 8.0732045 54.59203 9.2637606 61.648962 7.7910156 62.423828 C 5.0893429 63.845172 0.099822768 60.328753 0.009765625 64.527344 C -0.06794022 68.149283 0.36691588 71.739312 0.40039062 75.355469 C 0.44615997 80.306495 3.8777543 79.567949 7.9824219 79.658203 C 9.8545809 79.699399 9.1270187 83.602454 9.2011719 85.183594 C 9.2839422 86.946942 9.3318483 88.711627 9.3613281 90.476562 C 9.4660194 96.786458 9.4656606 103.09766 9.4550781 109.4082 C 9.4437397 116.15425 9.4067965 122.90108 9.3066406 129.64648 C 9.2877433 130.95127 10.088465 138.57624 8.4648438 139.05469 C 7.2549985 139.41109 4.9504619 138.96228 4.640625 140.6582 C 4.2926117 142.56339 4.4615874 144.67158 4.4355469 146.5957 C 4.4102244 148.46813 3.4018322 153.58499 4.9941406 155.19531 C 5.995295 156.20779 10.118763 155.65256 10.119141 156.51367 C 10.119141 159.26626 10.123047 162.0189 10.123047 164.77148 C 10.130606 178.40701 10.21646 296.03963 10.416016 309.67383 C 10.431133 310.83511 11.15032 314.48273 10.253906 315.35352 C 8.8230756 316.74311 8.284688 316.50277 6.3691406 316.67969 C 5.5649267 316.75414 5.0306278 316.98264 4.890625 317.74609 C 4.2447065 321.27011 4.7871482 325.25523 4.8535156 328.80664 C 4.886397 330.57331 4.469164 333.08675 6.4394531 334.0332 C 7.6235602 334.60198 10.269291 333.69133 10.326172 335.39258 C 10.393446 337.40632 10.41306 339.42105 10.441406 341.43555 C 10.503767 345.83666 10.296106 350.08715 10.541016 354.46094 C 11.254277 367.20783 10.799397 380.10574 10.931641 392.87305 C 11.051072 404.39929 11.198341 426.92605 11.21875 438.45312 C 11.222529 441.81186 11.245169 445.17177 11.345703 448.5293 C 11.372159 449.44805 10.99102 451.9914 11.996094 452.63281 C 12.913597 453.21833 15.38963 450.51009 15.392578 449.64062 C 15.400137 447.72999 22.239622 444.24925 23.923828 443.12305 C 24.249618 446.07806 28.554497 441.71744 28.548828 440.73047 C 28.53371 437.98189 28.519339 435.23292 28.501953 432.48438 C 28.486835 429.56878 28.460308 415.65192 28.464844 412.73633 C 28.468623 411.51983 27.949622 408.51969 28.871094 407.44727 C 30.557568 405.48463 35.370161 410.78055 36.71875 411.67383 C 41.058334 414.54823 46.144959 416.24381 51.425781 416.2793 C 55.450082 416.30575 60.290921 415.09559 63.580078 412.77734 C 65.59029 411.36057 67.429293 409.63478 68.884766 407.67773 C 69.602059 406.71325 70.22481 405.68019 70.712891 404.58789 C 71.157923 403.59189 71.223004 401.49681 71.996094 400.74609 C 73.990318 398.80919 71.010428 391.52451 69.875 389.73047 C 67.670524 386.2472 64.030458 384.18764 59.861328 384.0918 C 55.958877 384.00222 51.400422 384.28036 48.847656 387.68555 C 47.969762 388.8565 48.926221 391.3301 49.59375 392.37891 C 50.791765 394.26157 52.838056 393.43589 54.814453 393.86523 C 58.525323 394.67147 59.851651 399.38338 56.224609 401.34961 C 52.228201 403.51615 46.911807 400.42988 44.207031 397.55469 C 38.896653 391.90983 38.838458 383.11873 38.65625 375.9707 C 38.570834 372.61404 37.620653 368.38616 38.357422 365.06836 C 38.868822 362.76538 40.460063 364.07119 42.15625 364.84961 C 44.482021 365.91693 47.045691 366.52568 49.566406 366.96875 C 58.778328 368.58791 69.889474 366.4636 76.035156 358.93555 C 77.79135 356.78431 79.705257 354.28301 81.128906 351.51758 C 83.197424 347.49948 83.46004 344.10727 83.447266 339.66016 C 83.424589 331.67724 78.769274 323.90938 71.160156 320.54883 C 66.717113 318.5866 61.746468 318.57069 57.425781 320.83398 C 55.63061 321.77447 54.12176 323.05064 53.009766 324.71875 C 52.149786 326.00868 50.116428 328.78036 50.220703 330.39453 C 50.42555 333.56683 55.647843 336.23503 58.527344 334.73828 C 60.056667 333.94335 59.484884 331.6559 61.291016 330.81641 C 63.561531 329.76103 66.23244 330.4523 68.046875 332.01367 C 74.269885 337.36865 71.558293 346.89257 65.525391 351.0332 C 58.569784 355.80709 47.447783 353.1863 41.675781 347.70898 C 39.124679 345.28812 35.965077 338.40621 38.330078 335.12695 C 39.511351 333.48897 42.579766 335.3569 43.513672 333.66211 C 44.035276 332.71554 43.776086 330.96051 43.785156 329.93945 C 43.815392 326.30168 43.826403 322.54614 43.292969 318.9375 C 42.97247 316.76846 40.863404 316.81232 39.064453 316.16406 C 36.751986 315.33073 37.345778 312.57004 37.279297 310.55078 C 36.725492 293.73767 37.161774 172.8979 36.265625 156.09375 C 37.751674 156.03479 40.563261 156.42408 41.814453 155.43945 C 43.852228 153.83571 42.827668 147.86638 42.810547 145.79297 C 42.795429 143.94829 42.89856 141.98174 42.576172 140.1543 C 42.43104 139.332 39.56975 139.50129 38.855469 139.33008 C 35.346876 138.48896 38.882652 132.23501 39.761719 130.52344 C 43.711186 122.83853 53.76409 118.23748 62.380859 119.37695 C 69.760877 120.35285 75.368691 126.46334 74.646484 133.75 C 74.345639 136.7848 71.885717 141.3844 67.849609 140.52344 C 63.981385 139.69823 61.807214 133.1101 57.351562 136.87891 C 54.182971 139.55904 56.958486 145.47057 59.507812 147.71875 C 62.610679 150.45493 66.259752 152.45128 70.628906 152.42188 C 80.201182 152.35762 86.84896 144.63269 88.111328 135.98633 C 89.584402 125.89696 85.521618 116.92152 77.298828 110.59961 C 71.43483 106.09123 63.073034 105.26745 55.880859 106.18359 C 55.216316 106.26825 48.553227 107.95237 48.679688 106.95508 C 49.034579 104.15449 54.216129 100.28873 56.242188 98.484375 C 59.008039 96.021145 62.043292 93.827277 65.345703 92.087891 C 67.403045 91.00428 72.245445 88.11616 74.681641 89.068359 C 75.996808 89.582442 75.528098 91.776036 76.501953 92.712891 C 78.099409 94.24966 81.491841 93.927838 83.498047 93.941406 C 85.685553 93.956524 89.183207 94.521813 91.169922 93.294922 C 93.303371 91.977437 92.193233 88.337353 95.400391 88.847656 C 100.26787 89.622069 107.24991 91.302188 110.66797 94.966797 C 112.69802 97.143354 113.86585 100.31122 111.36914 102.50195 C 108.17593 105.30394 106.84436 101.42874 103.98438 100.70312 C 101.37519 100.04115 98.893844 101.94312 99.167969 104.46289 C 99.223527 104.9741 101.26214 111.90297 101.66016 111.38477 C 101.56983 111.06124 101.5305 110.73334 101.54297 110.39844 C 101.72854 110.29828 105.402 113.369 106.18945 113.66992 C 107.86575 114.31058 109.48951 114.7132 111.29102 114.61523 C 115.1984 114.40283 118.54238 113.65992 121.77539 111.4043 C 129.2274 106.20492 126.90345 94.276687 122.25 88.306641 C 121.10139 86.833102 119.77291 85.476286 118.41016 84.189453 C 117.26683 83.109773 115.26902 82.085875 114.50195 80.734375 C 113.65634 79.244585 115.66908 79.521025 116.48242 79.492188 C 121.27003 79.322489 126.06536 79.302915 130.85547 79.261719 C 142.67795 79.159673 154.51838 79.033695 166.33984 79.28125 C 167.28456 79.300147 168.30584 79.238442 169.24023 79.40625 C 170.70459 79.669679 170.34278 80.993336 170.5293 82.048828 C 170.79008 83.524748 172.31183 83.66025 173.60547 83.748047 C 175.1964 83.855762 176.7999 83.809866 178.39453 83.871094 L 199.48633 84.021484 L 199.50195 84.023438 C 202.49076 84.049894 207.82352 84.888887 207.36719 80.957031 C 207.00398 77.824836 212.36526 79.052891 214.63086 79.015625 C 220.07424 78.926052 225.52638 78.826372 230.9707 78.878906 C 234.95018 78.917457 236.94713 78.662001 237.42969 82.619141 C 237.64247 84.362836 241.24937 83.513672 242.80859 83.513672 C 246.00958 83.513672 249.21124 83.530236 252.41211 83.5 C 252.89407 83.492441 253.60567 83.553495 254.35938 83.576172 L 254.35938 87.664062 L 254.35938 100.6582 C 254.15836 101.01044 254.03125 102.17383 254.03125 102.17383 L 254.35742 108.71289 L 250.95508 108.66406 L 250.48633 111.50391 L 248.95703 111.62891 C 247.69178 111.04275 247.86615 110.08382 247.64648 109.22656 L 247.30469 108.38281 C 246.77027 107.26379 246.26247 107.46756 245.60352 108.25781 L 245.33789 109.59961 L 244.05859 109.59961 C 243.41964 110.97745 242.54348 111.42336 241.28125 110.34961 C 240.80799 109.5015 240.12134 109.57061 239.95508 110.41211 C 238.59787 110.35617 237.00619 110.63137 236.26953 107.9707 C 236.29977 106.66195 235.63344 106.98424 235.21094 106.73438 L 235.03516 105.94141 C 234.1889 105.42929 234.20916 103.78937 231.85742 105.23438 L 231.85742 106.64648 L 230.89062 106.79102 L 230.48438 107.66602 C 230.06727 109.32807 228.84635 109.69481 227.70703 110.19336 C 225.89024 110.93478 223.93224 110.8764 221.99609 110.94141 L 219.7207 111.125 C 219.18345 111.26408 218.63256 111.13304 218.33398 111.54492 C 218.00404 112.15527 217.89601 112.84004 218.1543 113.68555 C 218.4404 114.23228 218.55144 114.12122 218.99609 114.11328 C 219.56407 113.81697 220.2003 113.93373 220.82422 113.97266 C 227.47627 114.70659 229.47873 116.70293 230.35742 119.00391 C 231.29382 119.0931 231.53294 119.61462 231.39453 120.59766 C 232.52195 122.11832 233.06952 121.31719 233.88672 121.20898 C 234.14448 120.68727 234.42855 120.53264 234.36914 120.16992 C 234.31509 119.8396 234.21622 119.22252 234.89648 119.12891 L 235.91797 119.00391 C 235.36828 116.48209 237.50999 116.39405 239.33789 116.02344 C 239.83376 117.05705 240.29189 118.3125 241.30078 116.26758 C 241.75058 115.64994 242.48193 116.01635 243.1543 116.17773 L 244.39062 117.50195 C 244.61702 117.38403 244.83012 117.14156 245.0957 117.41406 C 245.84623 117.72851 245.41943 118.16773 245.46289 118.55664 C 245.90309 119.14575 246.32864 119.85532 246.92969 119.11719 L 247.67969 116.40234 C 248.00775 115.66395 248.42554 115.73343 248.83398 115.7168 L 250.36328 115.8418 L 250.45508 131.27539 C 250.45508 131.27539 255.57409 131.68122 255.48047 131.49414 C 255.38674 131.30706 254.79297 129.43359 254.79297 129.43359 L 255.08398 118.74023 L 270.23438 118.13086 L 285.38477 118.74023 L 285.67383 129.43359 C 285.67383 129.43359 285.08186 131.30691 284.98828 131.49414 C 284.89455 131.68122 290.01172 131.27539 290.01172 131.27539 L 290.10547 115.8418 L 291.63477 115.7168 C 292.04321 115.73191 292.46082 115.6638 292.78906 116.40234 L 293.53711 119.11719 C 294.1382 119.85532 294.56371 119.14446 295.00391 118.55664 C 295.04699 118.16773 294.62042 117.72851 295.37109 117.41406 C 295.63679 117.14156 295.85162 117.38328 296.07812 117.50195 L 297.31445 116.17773 C 297.98678 116.01635 298.71817 115.64982 299.16797 116.26758 C 300.17686 118.31235 300.63503 117.05689 301.13086 116.02344 C 302.9588 116.3942 305.10047 116.48209 304.55078 119.00391 L 305.57031 119.12891 C 306.25047 119.22264 306.15369 119.83948 306.09961 120.16992 C 306.04027 120.53275 306.32386 120.68727 306.58203 121.20898 C 307.39923 121.31708 307.94485 122.11832 309.07227 120.59766 C 308.93394 119.61462 309.175 119.09306 310.11133 119.00391 C 310.98998 116.70293 312.99252 114.70659 319.64453 113.97266 C 320.26848 113.93373 320.90464 113.81697 321.47266 114.11328 C 321.91723 114.12084 322.02827 114.23217 322.31445 113.68555 C 322.57259 112.84004 322.46276 112.15527 322.13281 111.54492 C 321.83423 111.13421 321.28534 111.26401 320.74805 111.125 L 318.47266 110.94141 C 316.53651 110.8764 314.57851 110.93448 312.76172 110.19336 C 311.6224 109.69481 310.40151 109.32807 309.98438 107.66602 L 309.57812 106.79102 L 308.61133 106.64648 L 308.61133 105.23438 C 306.25959 103.78937 306.27985 105.42952 305.43359 105.94141 L 305.25781 106.73438 C 304.83531 106.9842 304.16601 106.66202 304.19727 107.9707 C 303.46069 110.63156 301.87084 110.35606 300.51367 110.41211 C 300.34738 109.57069 299.65881 109.50157 299.18555 110.34961 C 297.92332 111.42336 297.04712 110.97745 296.4082 109.59961 L 295.13086 109.59961 L 294.86523 108.25781 C 294.20628 107.46749 293.69848 107.26367 293.16406 108.38281 L 292.82031 109.22656 C 292.60073 110.08382 292.77498 111.04275 291.50977 111.62891 L 289.98047 111.50391 L 289.51367 108.66406 L 286.11133 108.71289 L 286.4375 102.17383 C 286.4375 102.17383 286.32028 101.10434 286.13281 100.70703 L 286.41797 83.316406 C 288.79299 83.437349 291.44683 83.094189 293.41797 83.083984 C 296.52019 83.068867 300.61353 83.643859 303.61133 82.578125 C 304.86978 82.130749 304.52746 80.8717 304.59961 79.835938 C 304.80635 76.869849 317.57859 78.089221 319.22266 78.0625 C 323.23603 77.997115 327.26385 77.878428 331.27734 78.003906 C 334.49106 78.10444 332.92008 79.534135 334.9043 81.496094 C 336.33003 82.905797 339.41497 82.623401 341.67773 82.505859 L 341.68945 82.503906 L 341.7207 82.501953 C 342.10576 82.483056 342.47174 82.46875 342.79492 82.46875 C 342.81382 82.46875 342.83304 82.476562 342.85156 82.476562 L 363.13867 82.052734 L 363.14648 82.060547 C 365.94658 81.826598 369.05146 82.859685 369.47461 79.390625 C 369.7679 76.9842 371.44868 77.554607 373.53906 77.53125 C 381.7433 77.439787 389.94791 77.360114 398.15234 77.277344 C 412.45218 77.132968 427.24125 78.385541 441.16602 74.853516 C 456.28264 71.018982 465.21353 52.328121 452.95312 40.65625 C 446.38203 34.401228 435.32454 34.155062 429.13672 40.978516 C 427.49707 42.786488 425.78465 44.845357 427.20312 46.912109 C 430.06834 51.117197 436.09405 44.89364 439.30078 49.101562 C 441.3974 51.85289 439.43541 55.711047 436.76367 57.257812 C 433.06365 59.399958 428.23149 59.668487 424.04297 59.796875 C 422.09968 59.856591 415.48015 60.845452 413.98828 58.976562 C 412.85399 57.555634 415.66998 53.364466 416.2168 52.199219 C 419.46971 45.267532 421.74495 36.715047 418.27344 29.322266 C 414.10249 20.43924 406.99008 15.228855 397.08984 13.496094 C 388.052 11.914349 378.47766 17.584241 373.9375 24.824219 C 372.3276 27.391562 370.58134 33.101218 374.14844 34.992188 C 379.78166 37.978208 380.63278 31.35248 383.79688 28.939453 C 391.56028 23.018876 404.13117 27.882608 404.17188 37.855469 C 404.21118 47.507189 396.90182 54.627034 387.97461 57.757812 C 383.66779 59.26822 379.061 59.708937 374.50977 59.783203 C 373.09428 59.809659 371.67728 59.791142 370.26172 59.794922 C 368.27179 59.796434 368.80916 58.864919 367.5625 57.451172 C 366.41891 56.154342 364.14222 56.531724 362.57227 56.509766 C 357.48559 56.438334 352.39684 56.526851 347.31055 56.582031 C 343.72281 56.62096 340.10308 56.560605 336.52344 56.841797 C 335.53174 56.918898 333.91909 56.924767 333.35156 57.908203 C 332.55738 59.284288 333.13985 60.078831 331.19531 60.140625 C 329.58473 60.192026 327.97316 60.261019 326.36133 60.228516 C 323.04095 60.161241 323.8749 58.841099 325.41602 56.880859 C 330.99096 49.789517 334.04803 38.304317 327.92578 30.695312 C 321.93366 23.247956 311.50819 21.806189 303.0957 26.380859 C 300.38416 27.855418 294.93331 32.853302 297.30859 36.0625 C 301.75676 42.072877 305.09703 35.617229 310.52344 35.703125 C 315.22494 35.777958 318.48645 39.014924 316.88672 43.476562 C 315.39013 47.650432 311.18208 50.022041 306.79688 50.337891 C 305.45777 50.434267 303.13642 50.692851 302.85156 48.945312 C 302.61535 47.49639 301.87161 45.695374 300.06445 45.564453 C 295.60642 45.241687 290.61924 45.763891 286.13086 45.910156 C 283.81839 45.985368 281.61133 46.293999 281.61133 49.121094 C 281.61133 50.955711 278.66728 50.348294 277.35547 50.384766 C 271.31444 50.552574 265.25817 50.646468 259.21484 50.564453 C 256.82108 50.530438 256.83431 50.434222 255.84961 48.085938 C 254.93124 45.896224 251.08347 46.442396 249.19922 46.416016 C 246.36999 46.376709 243.54036 46.360704 240.71094 46.388672 C 239.49796 46.396231 237.46082 46.064685 236.57227 47.134766 C 235.60457 48.300368 236.53574 49.928849 235.71484 51.001953 C 234.75977 52.247805 231.1229 51.430612 229.90039 51.269531 C 225.73451 50.720488 221.8287 48.79282 220.13867 44.853516 C 217.98933 39.843564 222.6828 34.79245 227.82227 35.396484 C 229.51169 35.594906 230.81448 37.35892 232.50391 37.105469 C 234.60729 36.789883 235.23689 34.108795 235.47852 32.439453 C 236.01184 28.754987 229.66832 26.051431 226.76172 25.466797 C 217.99759 23.704065 208.69711 29.068394 206.24023 37.5 C 204.39189 43.843246 206.48445 50.722642 210.83008 55.582031 C 211.78711 56.652187 215.24495 59.281884 214.75195 60.837891 C 214.33273 62.16095 209.59612 61.547604 208.61523 61.539062 C 208.00198 61.531504 206.19727 61.80652 206.19727 60.818359 C 206.19727 60.17294 204.68726 58.032095 203.86719 58.035156 L 188.91992 58.091797 C 185.04438 58.106915 181.16336 58.08426 177.28906 58.197266 C 175.86961 58.238462 173.36243 57.986963 172.14453 58.931641 C 171.38063 59.524356 172.03855 60.98943 171.0918 61.339844 C 169.87137 61.791566 159.87109 62.980718 159.87109 60.601562 C 159.87109 59.322137 161.93171 57.345571 162.75586 56.486328 C 164.40566 54.766255 165.79749 52.775713 166.83594 50.652344 C 168.17583 47.912582 169.19212 44.188638 168.68945 41.181641 C 167.36411 33.253184 162.48746 27.797927 154.52148 25.853516 C 150.50231 24.872404 145.64132 25.902413 142.20898 28.097656 C 139.6026 29.764817 134.62237 34.561836 136.88086 38.089844 C 139.41043 42.041367 144.26181 38.082428 147.2832 37.558594 C 152.79538 36.600007 154.47839 41.143336 151.23438 45.037109 C 148.23044 48.642611 143.3981 50.525082 138.85352 51.476562 C 136.83854 51.898464 127.81618 54.046001 126.87695 50.939453 C 126.32825 49.124489 127.56624 47.577594 128.19141 45.96875 C 128.95834 43.995086 129.5876 41.95505 130.07031 39.898438 C 131.0862 35.570279 131.02088 30.961944 129.05859 26.886719 C 125.37699 19.2423 117.20338 15.429859 109.11133 13.992188 C 99.540856 12.29193 88.870406 17.092293 86.310547 26.673828 C 85.411941 30.037342 86.475515 34.612379 89.244141 36.980469 C 90.619262 38.156639 93.167196 37.33937 94.443359 36.441406 C 95.843036 35.510913 96.002583 35.590573 95.326172 34.105469 C 90.937867 24.470379 107.8342 22.683641 112.45117 29.447266 C 117.82327 37.317167 111.11095 47.749879 102.95898 50.498047 C 100.09484 51.463625 91.640625 54.404816 91.640625 49.359375 C 91.640625 45.105732 81.912395 46.818463 78.988281 46.892578 C 77.833465 46.919034 74.677196 46.485924 74.201172 47.894531 C 73.991789 48.513963 73.977688 51.529307 73.505859 51.953125 C 73.095269 52.321623 70.765163 52.082217 70.234375 52.064453 C 61.924003 51.784017 54.152377 50.420434 46.570312 46.998047 C 45.315378 46.43158 37.670756 42.266816 40.447266 40.142578 C 42.299469 38.725516 43.227479 38.311388 43.824219 35.960938 C 44.339662 33.930581 43.842875 31.942325 43.572266 29.896484 C 43.282003 27.708335 42.163427 27.015625 39.802734 27.015625 C 37.841342 27.015625 36.904169 26.151022 38.001953 24.371094 C 40.848912 19.755113 46.819708 18.983116 51.371094 21.699219 C 53.099255 22.730511 53.801825 24.647521 53.482422 26.576172 C 53.321417 27.549045 52.869269 28.511775 52.080078 29.15625 C 51.568338 29.574146 49.978103 29.923687 49.996094 30.769531 C 50.097006 35.50091 58.262728 34.031494 60.544922 32.447266 C 64.834882 29.469333 65.161571 23.403741 63.705078 18.957031 C 62.049672 13.902897 57.798295 10.756055 52.921875 8.8164062 C 48.10672 6.9008703 42.433121 7.1853908 37.546875 8.8886719 C 36.143408 9.3778861 24.309259 16.845885 24.970703 17.488281 C 22.915504 15.492205 26.063875 9.9316086 23.427734 7.8574219 C 22.078578 6.7958829 19.841666 6.4917742 17.544922 6.5039062 L 17.542969 6.5039062 z M 25.835938 46.912109 C 26.456224 46.956329 28.090335 50.516469 28.580078 51.130859 C 29.947263 52.845895 31.529899 54.424203 33.236328 55.822266 C 35.819594 57.938786 38.677174 59.592694 41.169922 61.847656 C 40.848289 61.966332 40.526938 62.084072 40.205078 62.203125 C 38.162881 62.957204 35.148366 62.533827 33.017578 62.505859 C 30.471956 62.471844 26.954243 63.235896 26.259766 60.234375 C 25.974038 58.998659 25.528402 46.892255 25.835938 46.914062 L 25.835938 46.912109 z M 45.839844 79.388672 C 48.937949 79.396231 52.02922 79.473833 55.097656 79.683594 C 55.518387 79.71005 56.133249 79.697891 56.480469 79.984375 C 58.217361 81.406097 55.113517 82.675954 54.113281 83.271484 C 50.50064 85.422266 47.174495 88.151963 44.095703 90.966797 C 42.86269 92.09425 38.130859 95.469522 38.130859 97.330078 C 38.130859 98.145801 36.293701 99.415957 35.806641 99.927734 C 34.655642 101.13743 33.741635 102.50355 32.765625 103.84375 C 31.293485 105.8652 29.786809 110.69777 27.705078 111.94727 C 27.633268 111.99035 27.37103 107.87945 27.369141 107.64062 C 27.342684 103.92896 27.390803 100.2176 27.337891 96.505859 C 27.2589 90.893955 26.933759 85.289109 26.816406 79.677734 C 32.677302 79.651278 38.604764 79.412168 44.509766 79.390625 C 44.952644 79.38934 45.397268 79.388483 45.839844 79.388672 z "
       transform="matrix(0.26458756,0,0,0.26458756,56.265893,83.840395)"
       id="handle">
      <title
         id="title3626">Sign handle</title>
    </path>
  </g>
  <g
     id="sign-barrel"
     style="display:inline"
     transform="translate(-56.265893,-83.84237)">
    <path
       style="display:inline;fill:#000000;stroke-width:0.47590908"
       d="m 127.86811,118.56089 c -13.92521,-0.0129 -27.913122,0.0797 -30.64733,0.32695 l -1.763051,3.27443 c -3.07183,5.70453 -5.937404,15.8766 -7.071711,25.10305 -0.647157,5.26399 -0.362982,19.96311 0.484507,25.04727 1.515539,9.0919 3.138564,14.696 6.097818,21.05898 l 2.157625,4.64011 h 30.618052 30.61736 l 1.37545,-2.73624 c 1.80913,-3.5992 4.77042,-11.5646 5.03539,-13.54389 0.11533,-0.86156 0.52603,-3.06512 0.91255,-4.89737 3.92326,-18.59769 1.5995,-40.74407 -5.72207,-54.5304 l -1.82579,-3.43685 c -2.48144,-0.17472 -16.34358,-0.29324 -30.2688,-0.30604 z m 10.60688,2.82896 c 2.6803,0.0225 2.56596,0.39118 3.00045,4.84019 l 0.31022,3.17335 -3.66482,0.15824 c -2.17298,0.0936 -3.72111,-0.0365 -3.80285,-0.31858 -0.0759,-0.26176 -0.27082,-2.13541 -0.43362,-4.16397 l -0.29628,-3.68853 h 3.55677 c 0.50669,0 0.94722,-0.004 1.33013,-7.2e-4 z m -10.56226,7.1e-4 c 3.19489,0 3.0969,-0.13283 3.6,4.87854 l 0.32207,3.21238 h -3.92834 -3.92834 l 0.33183,-3.66064 c 0.18244,-2.01311 0.4387,-3.8337 0.56956,-4.04547 0.13088,-0.21176 1.4958,-0.38481 3.03322,-0.38481 z m -6.6367,0.25934 c 0.76178,10e-4 0.69728,0.41117 0.42804,5.33306 l -0.13663,2.49852 h -3.79171 -3.79101 l 0.31929,-2.71672 c 0.1756,-1.49412 0.442,-3.20787 0.59256,-3.80774 0.28237,-1.125 0.21816,-1.111 6.00092,-1.29458 0.14437,-0.004 0.26971,-0.0127 0.37854,-0.0125 z m -13.32569,0.20774 c 0.30695,0.002 0.66129,0.009 1.07359,0.009 h 2.98093 l -0.50751,3.68853 -0.50751,3.68783 -3.19636,0.14082 c -3.54383,0.15602 -3.46623,0.24912 -2.70486,-3.234 0.90093,-4.12157 0.7131,-4.30961 2.86172,-4.29224 z m -9.126163,0.009 h 2.069093 2.06909 l -0.7041,3.80704 -0.70411,3.80774 h -2.999756 c -1.649763,0 -2.999762,-0.12176 -2.999762,-0.26979 0,-0.14803 0.735684,-1.86107 1.634774,-3.80704 z m 47.774493,0 h 3.07993 l 0.58978,2.97466 c 0.3245,1.63595 0.68991,3.34898 0.81145,3.80704 0.19481,0.73437 -0.16937,0.83308 -3.07714,0.83308 h -3.29813 l -0.31929,-2.71673 c -0.17559,-1.49412 -0.44199,-3.20786 -0.59256,-3.80774 -0.26423,-1.05276 -0.16708,-1.09031 2.80596,-1.09031 z m 8.13065,0 h 2.12904 l 1.47235,3.53585 c 0.80968,1.94494 1.47235,3.65867 1.47235,3.80774 0,0.1491 -1.25766,0.27119 -2.79411,0.27119 h -2.79341 l -0.56468,-2.97467 c -0.31073,-1.63594 -0.67442,-3.34897 -0.80798,-3.80704 -0.20568,-0.70522 0.0833,-0.83307 1.88644,-0.83307 z m -60.149978,10.47023 h 33.291558 33.29156 l 0.58211,2.60101 c 0.3202,1.43074 0.54927,2.76947 0.50961,2.97466 -0.0321,0.16587 -11.60514,0.85566 -26.07486,1.11402 l 4.14515,2.39325 2.90566,0.0286 c 0,0.59427 -0.004,1.08147 -0.004,1.64593 l 3.41804,1.97359 -0.0739,-3.68923 h 3.24794 3.24723 l 0.38622,3.21239 c 0.50339,4.18258 0.51598,25.86983 0.0167,28.79296 l -0.38551,2.2601 h -3.27443 c -1.80076,0 -3.38364,-0.17757 -3.51773,-0.39458 -0.0978,-0.15828 -0.0602,-1.43871 0.0733,-3.12106 l -3.32532,1.9206 c 0.004,0.39415 0.004,0.73142 0.01,1.14051 -0.49757,-0.0304 -1.16303,-0.0432 -1.90247,-0.0481 l -5.39861,3.11688 26.98322,0.003 -0.24261,1.19001 c -0.13345,0.65424 -0.58106,1.99245 -0.9941,2.97396 l -0.75082,1.78397 H 127.70706 94.67274 l -0.736172,-1.47583 c -0.404872,-0.8116 -0.862782,-2.15177 -1.017813,-2.97815 l -0.282336,-1.50232 28.164161,0.003 -4.74679,-2.74113 c -1.41797,-0.0428 -2.64744,-0.11515 -3.53795,-0.23911 -0.15345,-0.24831 -0.31073,-0.99943 -0.4601,-2.0691 l -2.77389,-1.60131 c 0.10872,1.81956 0.19475,3.13885 0.22169,3.29047 0.10597,0.59649 -6.60822,0.99319 -6.94972,0.41061 -0.44365,-0.75683 -0.89257,-8.8263 -0.89162,-16.03823 7.1e-4,-6.86083 0.20819,-10.78397 0.83864,-15.86743 l 0.25096,-2.02308 h 3.33997 3.34066 l -0.32137,2.99907 c -0.0406,0.37879 -0.0729,0.80299 -0.10806,1.21161 l 3.04716,-1.75887 c 0.12488,-1.32066 0.24312,-2.18922 0.33463,-2.27056 0.0358,-0.0318 1.77856,-0.20316 3.87257,-0.37994 l 0.37715,0.003 3.79448,-2.19039 -27.337344,-0.70759 0.280945,-1.75677 c 0.154491,-0.9662 0.489197,-2.30492 0.743838,-2.97467 z m 0.08297,9.02927 c 0.40479,0.003 0.872503,0.0125 1.415178,0.0125 h 3.778449 l -0.355537,1.30921 c -0.475741,1.74878 -0.473688,21.94117 0.0033,28.0784 l 0.378544,4.87784 h -3.843983 c -2.648692,0 -3.907797,-0.18476 -4.048946,-0.59466 -1.226567,-3.56197 -1.649893,-19.92307 -0.704801,-27.24602 0.794544,-6.1565 0.544782,-6.45813 3.378306,-6.43733 z m 61.248658,0.0125 h 3.57907 c 2.99727,0 3.61968,0.13562 3.82656,0.83306 1.75686,5.92093 1.76062,30.19811 0.006,33.03781 h -7.2e-4 c -0.13417,0.21707 -1.85863,0.39458 -3.83214,0.39458 h -3.58814 l 0.32975,-5.35398 c 0.46283,-7.50494 0.49505,-24.46394 0.0508,-26.88839 z m -31.87498,45.64613 3.70456,0.13943 3.70524,0.13942 -0.13244,2.47134 c -0.0728,1.35912 -0.29255,3.07216 -0.488,3.80704 -0.32927,1.23808 -0.55108,1.34679 -3.01717,1.47793 -3.01323,0.16014 -2.83764,0.42687 -3.46755,-5.278 z m -26.656954,0.0397 c 0.327381,-0.003 0.707561,0.001 1.143297,0.001 h 3.031827 l 0.70759,3.82795 c 0.38943,2.10522 0.61044,3.92511 0.49078,4.04477 -0.11965,0.11959 -1.04779,0.2182 -2.06211,0.2182 -1.804368,0 -1.872849,-0.0653 -3.190082,-3.00116 -2.10694,-4.69593 -2.412966,-5.07081 -0.121302,-5.09115 z m 7.142824,0.001 h 3.30022 3.30023 l 0.30882,2.97466 c 0.16968,1.63593 0.36077,3.40275 0.42525,3.92625 0.10455,0.84892 -0.19974,0.96694 -2.8185,1.09241 l -2.93632,0.14082 -0.53749,-2.75855 c -0.29571,-1.51702 -0.65109,-3.34655 -0.78986,-4.06637 z m 9.458,0 h 3.56931 3.56932 l 0.30604,2.92517 c 0.16815,1.60888 0.30534,3.42947 0.30534,4.04546 0,1.06154 -0.16169,1.1196 -3.10502,1.1196 -2.91985,-1e-5 -3.13388,-0.0745 -3.58396,-1.25833 -0.26327,-0.69244 -0.60946,-2.51301 -0.76964,-4.04546 z m 20.65811,0 h 3.5742 3.57491 l -0.33951,2.71394 c -0.18646,1.4924 -0.48412,3.25923 -0.66158,3.92625 -0.29839,1.12145 -0.55441,1.22302 -3.4034,1.35104 -1.69455,0.0761 -3.21612,0.003 -3.38109,-0.16174 -0.16499,-0.16497 -0.21629,-0.97686 -0.11364,-1.80417 0.10257,-0.82732 0.31356,-2.52119 0.46847,-3.76452 z m 10.06659,0 h 3.23609 3.23609 l -0.28234,1.78466 c -0.15511,0.98155 -0.5166,2.74838 -0.8031,3.92625 l -0.52075,2.14159 -3.03881,0.14361 -3.03879,0.14291 0.30952,-1.54554 c 0.17006,-0.85029 0.44267,-2.68185 0.60581,-4.06986 z m 9.51865,0 h 2.78992 c 1.65692,0 2.78993,0.20632 2.78993,0.50751 0,0.2789 -0.73569,2.09879 -1.63478,4.04477 -1.57857,3.41657 -1.69246,3.53864 -3.30371,3.53864 -0.91771,0 -1.76725,-0.16063 -1.88853,-0.35693 -0.12124,-0.19632 0.10937,-2.01691 0.51308,-4.04546 z"
       id="barrel">
      <title
         id="title221">Sign barrel</title>
    </path>
  </g>
  <g
     id="sign-dice"
     style="display:inline"
     transform="translate(-56.265893,-83.84237)">
    <g
       id="g3829"
       transform="rotate(180,104.97101,143.3882)"
       style="fill:#000000" />
    <g
       id="dice"
       transform="matrix(0.53454076,0,0,0.53454076,103.28573,133.12689)"
       style="fill:#005000;fill-opacity:1">
      <title
         id="title227">Sign dice</title>
      <g
         id="g3900"
         transform="translate(-3.25,-954.86216)"
         style="fill:#005000;fill-opacity:1">
        <path
           id="path3898"
           d="m 49.999999,957.36216 -38.971335,22.4997 v 45.00064 l 1.290604,0.7457 37.680731,21.754 38.971337,-22.4997 v -45.00064 z m 0,7.5949 c 7.201114,7.23737 11.952236,14.47474 15.565861,23.0246 -10.002094,1.87574 -20.538854,1.42814 -31.131722,0 3.438626,-8.54986 8.277247,-16.31223 15.565861,-23.0246 z m -8.4251,3.2361 c -2.778862,7.3606 -6.432721,13.8462 -12.799072,18.9318 -4.644425,-0.61104 -7.976354,-3.14707 -9.995787,-5.7706 6.723289,-6.04956 14.409075,-10.34913 22.794859,-13.1612 z m 16.851427,0 c 8.997873,3.24914 16.245751,7.37327 22.793632,13.1599 -2.019003,2.71103 -5.438001,4.63456 -9.994495,5.7706 -6.016373,-6.04767 -10.020253,-12.18283 -12.799137,-18.9305 z m -42.230078,17.6348 c 4.819833,0.96107 7.889672,2.88464 9.997014,5.7707 -0.969846,7.55058 -4.564683,13.78864 -9.997014,20.55174 -2.028318,-9.1429 -1.848628,-17.59804 0,-26.32244 z m 67.607502,0 c 1.546791,8.96019 1.423048,17.98224 0,26.32374 -4.995902,-6.6798 -8.069108,-13.06367 -9.997079,-20.55304 2.544432,-3.06106 5.613861,-5.07213 9.995787,-5.7707 4.31e-4,0 8.61e-4,0 0.0013,0 z m -49.759442,7.32 c 10.637127,-1.42305 20.841153,-1.48492 31.911382,0 -3.709901,9.83104 -9.275951,19.04334 -15.955691,27.63694 -7.174713,-8.2842 -12.122047,-17.8059 -15.955691,-27.63694 z m -4.280633,2.9219 c 6.797692,8.43004 11.862979,17.47884 15.567089,26.96074 -9.983392,0.5814 -18.358121,0.1729 -27.722796,-1.9681 2.44324,-8.764 6.309527,-17.3423 12.155707,-24.99264 z m 40.472648,0 c 5.970333,8.02154 9.960773,16.22864 12.156935,24.99264 -9.634754,2.494 -17.478795,3.0247 -27.722732,1.9681 3.703679,-9.7294 8.459177,-18.4688 15.565797,-26.96074 z M 24.618764,1026.741 c 7.908506,-0.5737 14.950809,-0.034 22.797443,1.6199 1.423048,3.7857 1.051818,7.6951 0,11.5426 -8.960324,-3.2738 -16.064498,-7.5376 -22.797443,-13.1625 z m 50.763697,0 c -6.300252,5.6249 -14.085424,10.1362 -22.79867,13.1625 -1.175561,-3.9094 -1.361176,-7.6951 0,-11.5426 7.785172,-1.7155 14.580397,-2.3792 22.79867,-1.6199 z"
           style="clip-rule:nonzero;display:inline;overflow:visible;visibility:visible;opacity:1;isolation:auto;mix-blend-mode:normal;color-interpolation:sRGB;color-interpolation-filters:linearRGB;solid-color:#000000;solid-opacity:1;fill:#005000;fill-opacity:1;fill-rule:nonzero;stroke:none;stroke-width:8;stroke-linecap:round;stroke-linejoin:miter;stroke-miterlimit:4;stroke-dasharray:none;stroke-dashoffset:0;stroke-opacity:1;marker:none;color-rendering:auto;image-rendering:auto;shape-rendering:auto;enable-background:accumulate"
           inkscape:connector-curvature="0" />
      </g>
    </g>
  </g>
</svg>
