<?xml version="1.0" encoding="UTF-8" standalone="no"?>
<!-- Created with Inkscape (http://www.inkscape.org/) -->

<svg
   xmlns:dc="http://purl.org/dc/elements/1.1/"
   xmlns:cc="http://creativecommons.org/ns#"
   xmlns:rdf="http://www.w3.org/1999/02/22-rdf-syntax-ns#"
   xmlns:svg="http://www.w3.org/2000/svg"
   xmlns="http://www.w3.org/2000/svg"
   xmlns:sodipodi="http://sodipodi.sourceforge.net/DTD/sodipodi-0.dtd"
   xmlns:inkscape="http://www.inkscape.org/namespaces/inkscape"
   width="41.662868mm"
   height="48.107922mm"
   viewBox="0 0 41.663535 48.107126"
   version="1.1"
   style="enable-background:new"
   id="svg15"
   sodipodi:docname="tavern-dice.svg"
   inkscape:export-filename="/home/dev/tavern-web/static/vectors/tavern-barrel.svg.png"
   inkscape:export-xdpi="163.49883"
   inkscape:export-ydpi="163.49883"
   inkscape:version="0.92.2pre0 (973e216, 2017-07-25)">
  <metadata
     id="metadata21">
    <rdf:RDF>
      <cc:Work
         rdf:about="">
        <dc:format>image/svg+xml</dc:format>
        <dc:type
           rdf:resource="http://purl.org/dc/dcmitype/StillImage" />
        <dc:title>Taven logo</dc:title>
      </cc:Work>
    </rdf:RDF>
  </metadata>
  <defs
     id="defs19" />
  <sodipodi:namedview
     pagecolor="#ffffff"
     bordercolor="#666666"
     borderopacity="1"
     objecttolerance="10"
     gridtolerance="10"
     guidetolerance="10"
     inkscape:pageopacity="0"
     inkscape:pageshadow="2"
     inkscape:window-width="1366"
     inkscape:window-height="740"
     id="namedview17"
     showgrid="false"
     inkscape:zoom="1.4551745"
     inkscape:cx="29.873431"
     inkscape:cy="1.2153483"
     inkscape:window-x="0"
     inkscape:window-y="0"
     inkscape:window-maximized="1"
     inkscape:current-layer="svg15" />
  <title
     id="title229">Taven logo</title>
  <g
     id="sign-dice"
     style="display:inline"
     transform="translate(-107.44374,-134.46453)">
    <g
       id="g3829"
       transform="rotate(180,104.97101,143.3882)"
       style="fill:#000000" />
    <g
       id="dice"
       transform="matrix(0.53454076,0,0,0.53454076,103.28573,133.12689)"
       style="fill:#005000;fill-opacity:1">
      <title
         id="title227">Sign dice</title>
      <g
         id="g3900"
         transform="translate(-3.25,-954.86216)"
         style="fill:#005000;fill-opacity:1">
        <path
           id="path3898"
           d="m 49.999999,957.36216 -38.971335,22.4997 v 45.00064 l 1.290604,0.7457 37.680731,21.754 38.971337,-22.4997 v -45.00064 z m 0,7.5949 c 7.201114,7.23737 11.952236,14.47474 15.565861,23.0246 -10.002094,1.87574 -20.538854,1.42814 -31.131722,0 3.438626,-8.54986 8.277247,-16.31223 15.565861,-23.0246 z m -8.4251,3.2361 c -2.778862,7.3606 -6.432721,13.8462 -12.799072,18.9318 -4.644425,-0.61104 -7.976354,-3.14707 -9.995787,-5.7706 6.723289,-6.04956 14.409075,-10.34913 22.794859,-13.1612 z m 16.851427,0 c 8.997873,3.24914 16.245751,7.37327 22.793632,13.1599 -2.019003,2.71103 -5.438001,4.63456 -9.994495,5.7706 -6.016373,-6.04767 -10.020253,-12.18283 -12.799137,-18.9305 z m -42.230078,17.6348 c 4.819833,0.96107 7.889672,2.88464 9.997014,5.7707 -0.969846,7.55058 -4.564683,13.78864 -9.997014,20.55174 -2.028318,-9.1429 -1.848628,-17.59804 0,-26.32244 z m 67.607502,0 c 1.546791,8.96019 1.423048,17.98224 0,26.32374 -4.995902,-6.6798 -8.069108,-13.06367 -9.997079,-20.55304 2.544432,-3.06106 5.613861,-5.07213 9.995787,-5.7707 4.31e-4,0 8.61e-4,0 0.0013,0 z m -49.759442,7.32 c 10.637127,-1.42305 20.841153,-1.48492 31.911382,0 -3.709901,9.83104 -9.275951,19.04334 -15.955691,27.63694 -7.174713,-8.2842 -12.122047,-17.8059 -15.955691,-27.63694 z m -4.280633,2.9219 c 6.797692,8.43004 11.862979,17.47884 15.567089,26.96074 -9.983392,0.5814 -18.358121,0.1729 -27.722796,-1.9681 2.44324,-8.764 6.309527,-17.3423 12.155707,-24.99264 z m 40.472648,0 c 5.970333,8.02154 9.960773,16.22864 12.156935,24.99264 -9.634754,2.494 -17.478795,3.0247 -27.722732,1.9681 3.703679,-9.7294 8.459177,-18.4688 15.565797,-26.96074 z M 24.618764,1026.741 c 7.908506,-0.5737 14.950809,-0.034 22.797443,1.6199 1.423048,3.7857 1.051818,7.6951 0,11.5426 -8.960324,-3.2738 -16.064498,-7.5376 -22.797443,-13.1625 z m 50.763697,0 c -6.300252,5.6249 -14.085424,10.1362 -22.79867,13.1625 -1.175561,-3.9094 -1.361176,-7.6951 0,-11.5426 7.785172,-1.7155 14.580397,-2.3792 22.79867,-1.6199 z"
           style="clip-rule:nonzero;display:inline;overflow:visible;visibility:visible;opacity:1;isolation:auto;mix-blend-mode:normal;color-interpolation:sRGB;color-interpolation-filters:linearRGB;solid-color:#000000;solid-opacity:1;fill:#005000;fill-opacity:1;fill-rule:nonzero;stroke:none;stroke-width:8;stroke-linecap:round;stroke-linejoin:miter;stroke-miterlimit:4;stroke-dasharray:none;stroke-dashoffset:0;stroke-opacity:1;marker:none;color-rendering:auto;image-rendering:auto;shape-rendering:auto;enable-background:accumulate"
           inkscape:connector-curvature="0" />
      </g>
    </g>
  </g>
</svg>
