<svg xmlns="http://www.w3.org/2000/svg" width="458.714" height="458.714" viewBox="0 0 121.37 121.366"><path d="M4.642 1.719c-.608.004-1.232.09-1.652.142-.672.084-1.076.36-1.153 1.036-.124 1.089-.034 2.287.11 3.372.13.988-1.226.33-1.212 1.132.016.913-.242 2.224.099 3.087.158.402.91-.031 1.131.326.477.77.146 2.373.163 3.229.008.4.323 2.267-.067 2.472-.714.376-2.035-.555-2.058.556-.021.958.094 1.908.103 2.865.012 1.31.92 1.115 2.006 1.139.495.01.303 1.043.323 1.462.021.466.034.933.042 1.4.028 1.67.027 3.34.025 5.01-.003 1.784-.013 3.57-.04 5.354-.005.345.207 2.363-.222 2.49-.32.093-.93-.025-1.012.423-.092.505-.048 1.062-.054 1.571-.007.496-.274 1.85.147 2.276.265.268 1.356.12 1.356.349l.001 2.185c.002 3.607.025 34.731.078 38.339.004.307.194 1.272-.043 1.503-.379.367-.521.304-1.028.35-.213.02-.354.08-.391.283-.17.932-.027 1.987-.01 2.926.009.468-.102 1.133.42 1.383.313.15 1.013-.09 1.028.36.018.533.023 1.066.03 1.599.017 1.164-.038 2.289.027 3.446.189 3.373.068 6.785.103 10.163.032 3.05.07 9.01.076 12.06.001.889.007 1.778.034 2.666.007.243-.094.916.172 1.086.243.155.898-.562.899-.792.002-.505 1.811-1.426 2.257-1.724.086.782 1.225-.372 1.224-.633l-.013-2.182c-.004-.771-.01-4.454-.01-5.225.001-.322-.136-1.116.108-1.4.446-.519 1.72.882 2.076 1.119 1.149.76 2.494 1.209 3.892 1.218 1.064.007 2.345-.313 3.215-.926a6.209 6.209 0 0 0 1.404-1.35c.19-.255.355-.528.484-.817.118-.264.135-.818.34-1.017.527-.512-.262-2.44-.562-2.914a3.169 3.169 0 0 0-2.65-1.492c-1.032-.024-2.238.05-2.914.95-.232.31.021.965.198 1.243.317.498.858.28 1.381.393.982.213 1.333 1.46.373 1.98-1.057.573-2.464-.243-3.18-1.004-1.404-1.494-1.42-3.82-1.468-5.71-.023-.889-.274-2.008-.08-2.885.136-.61.557-.264 1.006-.058.615.282 1.294.443 1.96.56 2.438.429 5.378-.133 7.004-2.125.465-.57.971-1.231 1.348-1.963.547-1.063.616-1.96.613-3.137-.006-2.112-1.238-4.168-3.25-5.057-1.176-.519-2.492-.523-3.635.076a3.108 3.108 0 0 0-1.168 1.028c-.228.34-.766 1.074-.738 1.501.054.84 1.436 1.546 2.198 1.15.404-.21.253-.816.73-1.038.602-.28 1.308-.096 1.788.317 1.647 1.417.93 3.936-.667 5.032-1.84 1.263-4.783.57-6.31-.88-.675-.64-1.511-2.46-.885-3.329.312-.433 1.124.061 1.371-.387.138-.25.07-.715.072-.985.008-.963.01-1.956-.13-2.911-.085-.574-.643-.562-1.119-.734-.612-.22-.455-.95-.472-1.485-.147-4.449-.031-36.421-.269-40.868.394-.015 1.138.088 1.469-.173.539-.424.268-2.003.263-2.552-.004-.488.023-1.008-.062-1.492-.038-.217-.795-.173-.984-.218-.929-.223.007-1.877.24-2.33 1.044-2.033 3.704-3.25 5.984-2.95 1.953.259 3.437 1.876 3.246 3.804-.08.803-.73 2.02-1.799 1.792-1.023-.219-1.599-1.962-2.777-.965-.839.71-.104 2.274.57 2.869.821.724 1.787 1.252 2.943 1.244 2.532-.017 4.291-2.061 4.625-4.349.39-2.67-.685-5.044-2.86-6.717-1.552-1.193-3.765-1.41-5.668-1.168-.175.022-1.938.468-1.905.204.094-.741 1.465-1.764 2.001-2.241a12.166 12.166 0 0 1 2.409-1.693c.544-.286 1.825-1.05 2.47-.799.348.136.224.717.481.965.423.406 1.32.321 1.852.325.578.004 1.504.153 2.03-.171.564-.349.27-1.312 1.119-1.177 1.288.205 3.135.65 4.04 1.62.536.575.845 1.413.185 1.993-.845.741-1.197-.284-1.954-.476-.69-.175-1.347.328-1.274.995.014.135.554 1.968.659 1.831a.846.846 0 0 1-.031-.26c.05-.027 1.021.785 1.23.865.443.17.873.276 1.35.25 1.033-.056 1.918-.253 2.773-.85 1.972-1.375 1.357-4.532.126-6.111a9.859 9.859 0 0 0-1.016-1.09c-.303-.285-.831-.556-1.034-.914-.224-.394.309-.32.524-.328 1.267-.045 2.535-.05 3.803-.061 3.128-.027 6.26-.06 9.388.005.25.005.52-.011.768.033.387.07.292.42.34.7.07.39.473.425.815.449.42.028.845.016 1.267.032l5.58.04h.005c.79.008 2.202.23 2.08-.81-.095-.83 1.323-.505 1.923-.514 1.44-.024 2.882-.05 4.323-.037 1.053.01 1.581-.057 1.709.99.056.461 1.01.237 1.423.237.847 0 1.694.004 2.541-.004.128-.002.316.014.515.02V26.631c-.053.093-.086.4-.086.4l.086 1.731-.9-.013-.124.752-.405.033c-.335-.155-.289-.41-.347-.636l-.09-.223c-.142-.296-.276-.242-.45-.033l-.07.355h-.34c-.168.364-.4.482-.734.198-.125-.224-.307-.206-.35.017-.36-.015-.781.058-.976-.646.008-.347-.168-.261-.28-.327l-.047-.21c-.224-.136-.218-.57-.84-.187v.373l-.256.039-.108.231c-.11.44-.433.537-.735.669-.48.196-.998.18-1.51.198l-.603.048c-.142.037-.288.002-.367.111a.7.7 0 0 0-.047.567c.076.144.105.115.223.113.15-.078.318-.048.483-.037 1.76.194 2.29.722 2.523 1.331.247.024.31.162.274.422.298.402.443.19.66.161.068-.138.143-.179.127-.275-.014-.087-.04-.25.14-.275l.27-.033c-.145-.667.421-.69.905-.789.131.274.252.606.52.065.118-.163.312-.066.49-.024l.327.35c.06-.03.116-.095.186-.023.199.084.086.2.097.303.117.156.23.343.389.148l.198-.718c.087-.196.197-.177.305-.182l.405.033.024 4.084s1.355.107 1.33.058c-.025-.05-.182-.545-.182-.545l.077-2.83 4.009-.161 4.008.161.077 2.83s-.157.495-.182.545c-.024.05 1.33-.058 1.33-.058l.024-4.084.405-.033c.108.004.218-.014.305.182l.198.718c.16.195.272.007.388-.148.012-.103-.101-.22.098-.303.07-.072.127-.008.187.024l.327-.35c.178-.043.371-.14.49.023.267.541.388.209.52-.065.483.098 1.05.122.904.789l.27.033c.18.025.154.188.14.275-.016.096.06.137.128.275.216.029.36.241.659-.161-.037-.26.027-.398.275-.422.232-.609.762-1.137 2.522-1.331.165-.01.333-.041.484.037.117.002.147.031.222-.113a.7.7 0 0 0-.048-.567c-.079-.108-.224-.074-.366-.11l-.602-.05c-.512-.016-1.03-.001-1.511-.197-.302-.132-.625-.23-.735-.669l-.107-.231-.256-.039v-.373c-.623-.383-.617.051-.841.187l-.047.21c-.111.066-.288-.02-.28.327-.195.704-.616.63-.975.646-.044-.223-.226-.241-.351-.017-.334.284-.566.166-.735-.198h-.338l-.07-.355c-.175-.21-.309-.263-.45.033l-.091.223c-.058.227-.012.48-.347.636l-.405-.033-.123-.752-.9.013.086-1.73s-.031-.283-.08-.388l.075-4.601c.628.032 1.33-.06 1.852-.062.82-.004 1.904.148 2.697-.134.333-.118.242-.451.261-.725.055-.785 3.434-.463 3.87-.47 1.061-.017 2.127-.048 3.189-.015.85.026.435.405.96.924.377.373 1.193.298 1.792.267h.003l.008-.001a5.99 5.99 0 0 1 .284-.009l.015.002 5.368-.112.002.002c.74-.062 1.562.212 1.674-.706.078-.637.523-.486 1.076-.492 2.17-.024 4.341-.045 6.512-.067 3.784-.039 7.697.293 11.381-.642 4-1.014 6.363-5.96 3.119-9.048-1.739-1.655-4.665-1.72-6.302.085-.434.479-.887 1.024-.511 1.57.758 1.113 2.352-.534 3.2.58.555.728.036 1.748-.67 2.158-.98.567-2.258.638-3.367.672-.514.015-2.265.277-2.66-.218-.3-.375.445-1.484.59-1.793.86-1.834 1.462-4.097.544-6.053-1.104-2.35-2.985-3.729-5.605-4.187-2.391-.419-4.925 1.082-6.126 2.997-.426.68-.888 2.19.056 2.69 1.49.79 1.716-.962 2.553-1.601 2.054-1.566 5.38-.28 5.39 2.36.011 2.553-1.923 4.437-4.285 5.265-1.14.4-2.358.516-3.562.536-.375.007-.75.002-1.124.003-.527 0-.385-.246-.715-.62-.302-.343-.904-.243-1.32-.25-1.346-.018-2.692.005-4.038.02-.95.01-1.907-.006-2.854.069-.262.02-.69.022-.84.282-.21.364-.055.574-.57.59-.426.014-.852.032-1.279.024-.878-.018-.658-.367-.25-.886 1.475-1.876 2.284-4.915.664-6.928-1.585-1.97-4.344-2.352-6.57-1.142-.717.39-2.16 1.713-1.53 2.562 1.176 1.59 2.06-.118 3.496-.095 1.244.02 2.107.876 1.683 2.056-.396 1.105-1.51 1.732-2.67 1.816-.354.025-.968.094-1.043-.369-.063-.383-.26-.86-.738-.894-1.18-.086-2.499.053-3.686.091-.612.02-1.196.102-1.196.85 0 .485-.78.325-1.126.334-1.599.045-3.201.07-4.8.048-.633-.01-.63-.035-.89-.656-.243-.58-1.261-.435-1.76-.442a94.46 94.46 0 0 0-2.246-.007c-.32.002-.86-.086-1.095.197-.256.309-.01.74-.227 1.024-.252.33-1.215.113-1.538.07-1.102-.145-2.136-.655-2.583-1.697-.569-1.326.673-2.662 2.033-2.503.447.053.792.52 1.239.453.556-.084.723-.793.787-1.235.14-.975-1.538-1.69-2.307-1.845-2.319-.466-4.78.953-5.43 3.184-.488 1.678.065 3.499 1.215 4.784.253.283 1.168.98 1.038 1.391-.111.35-1.364.188-1.624.185-.162-.002-.64.071-.64-.19 0-.171-.4-.737-.616-.737l-3.955.015c-1.026.004-2.052-.002-3.078.028-.375.011-1.038-.055-1.36.195-.203.156-.029.544-.28.637-.322.12-2.968.434-2.968-.196 0-.338.545-.861.763-1.088a6.142 6.142 0 0 0 1.08-1.544c.354-.725.623-1.71.49-2.506-.35-2.098-1.64-3.541-3.749-4.055-1.063-.26-2.35.012-3.257.593-.69.441-2.008 1.71-1.41 2.644.67 1.046 1.953-.002 2.752-.14 1.459-.254 1.904.948 1.046 1.978-.795.954-2.074 1.452-3.276 1.704-.533.112-2.92.68-3.169-.142-.145-.48.182-.89.348-1.315.203-.522.37-1.062.497-1.606.269-1.146.251-2.365-.268-3.443-.974-2.023-3.136-3.031-5.277-3.412-2.533-.45-5.356.82-6.033 3.356-.238.89.043 2.1.776 2.727.364.31 1.038.095 1.376-.143.37-.246.412-.225.233-.618-1.161-2.55 3.31-3.022 4.531-1.233 1.422 2.083-.354 4.843-2.511 5.57-.758.256-2.995 1.034-2.995-.301 0-1.126-2.574-.672-3.348-.653-.305.007-1.14-.107-1.266.265-.056.164-.06.962-.184 1.074-.109.098-.725.034-.866.03-2.199-.075-4.255-.435-6.261-1.34-.332-.15-2.355-1.253-1.62-1.815.49-.375.735-.484.893-1.106.137-.537.005-1.063-.066-1.605-.077-.579-.373-.762-.998-.762-.519 0-.767-.229-.476-.7.753-1.221 2.333-1.425 3.537-.707.457.273.643.78.559 1.29a1.108 1.108 0 0 1-.371.683c-.136.111-.556.203-.552.427.027 1.252 2.188.863 2.791.444 1.136-.788 1.222-2.393.837-3.57-.438-1.336-1.563-2.17-2.854-2.682-1.274-.507-2.775-.432-4.068.019-.37.13-3.502 2.105-3.327 2.275-.544-.528.29-2-.408-2.548-.357-.28-.95-.361-1.557-.358zM6.836 12.41c.164.012.596.954.726 1.117.362.453.78.871 1.232 1.24.683.56 1.44.999 2.099 1.595l-.255.094c-.54.2-1.338.088-1.902.08-.673-.009-1.604.193-1.788-.6-.076-.328-.194-3.53-.112-3.525zm5.293 8.593c.82.002 1.637.023 2.45.078.11.007.273.004.365.08.46.376-.362.712-.626.87-.956.569-1.836 1.29-2.65 2.036-.327.298-1.579 1.191-1.579 1.683 0 .216-.486.552-.615.688-.305.32-.546.681-.805 1.036-.39.535-.788 1.813-1.339 2.144-.019.011-.088-1.076-.088-1.14-.007-.982.005-1.964-.009-2.946-.02-1.485-.107-2.968-.138-4.452 1.551-.007 3.12-.07 4.682-.076h.352z"/><path d="M71.602 34.719c-13.925-.013-27.913.08-30.647.326l-1.763 3.275c-3.072 5.704-5.938 15.876-7.072 25.103-.647 5.264-.363 19.963.485 25.047 1.515 9.092 3.138 14.696 6.097 21.06l2.158 4.64h61.235l1.376-2.737c1.81-3.6 4.77-11.565 5.035-13.544.116-.861.526-3.065.913-4.897 3.923-18.598 1.6-40.744-5.722-54.53l-1.826-3.437c-2.481-.175-16.344-.294-30.269-.306zm10.607 2.828c2.68.023 2.566.392 3 4.84l.31 3.174-3.664.158c-2.173.094-3.721-.036-3.803-.318-.076-.262-.27-2.136-.434-4.164l-.296-3.689h3.557c.507 0 .947-.004 1.33 0zm-10.562.001c3.195 0 3.097-.133 3.6 4.879l.322 3.212H67.712l.332-3.66c.182-2.014.439-3.834.57-4.046.13-.212 1.495-.385 3.033-.385zm-6.637.26c.762 0 .697.41.428 5.333l-.136 2.498h-7.583l.32-2.717c.175-1.494.441-3.207.592-3.807.282-1.125.218-1.111 6-1.295.145-.004.27-.013.38-.012zm-13.326.207c.307.002.662.01 1.074.01h2.981l-.508 3.688-.507 3.688-3.196.14c-3.544.156-3.467.25-2.705-3.234.9-4.121.713-4.31 2.861-4.292zm-9.126.01h4.138l-.704 3.806-.704 3.808h-3c-1.65 0-3-.122-3-.27 0-.148.736-1.86 1.636-3.807zm47.775 0h3.08l.59 2.974c.324 1.636.69 3.349.81 3.807.196.734-.168.833-3.076.833h-3.298l-.32-2.717c-.175-1.494-.442-3.208-.592-3.807-.264-1.053-.167-1.09 2.806-1.09zm8.13 0h2.13l1.472 3.535c.81 1.945 1.472 3.659 1.472 3.808 0 .149-1.257.271-2.794.271H97.95l-.565-2.975c-.31-1.636-.674-3.349-.808-3.807-.206-.705.083-.833 1.886-.833zm-60.15 10.47h66.584l.582 2.6c.32 1.431.549 2.77.51 2.975-.033.166-11.606.856-26.076 1.114l4.146 2.393 2.905.029c0 .594-.004 1.082-.004 1.646l3.418 1.974-.074-3.69H96.8l.386 3.213c.503 4.182.516 25.87.016 28.793l-.385 2.26h-3.274c-1.801 0-3.384-.178-3.518-.395-.098-.158-.06-1.439.073-3.12l-3.325 1.92c.004.394.004.731.01 1.14a37.859 37.859 0 0 0-1.903-.048l-5.398 3.117 26.983.003-.243 1.19c-.133.654-.58 1.992-.994 2.974l-.75 1.784H38.406l-.736-1.476c-.405-.811-.863-2.152-1.018-2.978l-.282-1.502 28.164.003-4.747-2.741c-1.418-.043-2.648-.116-3.538-.24-.154-.248-.31-.999-.46-2.069l-2.774-1.601c.109 1.82.195 3.139.222 3.29.106.597-6.609.994-6.95.411-.444-.757-.893-8.826-.892-16.038.001-6.861.208-10.784.839-15.868l.25-2.023h6.682l-.322 3c-.04.378-.073.802-.108 1.211l3.047-1.759c.125-1.32.243-2.19.335-2.27.036-.032 1.778-.204 3.872-.38l.378.003 3.794-2.19-27.337-.708.28-1.757c.155-.966.49-2.305.745-2.975zm.083 9.029c.405.003.873.012 1.416.012h3.778l-.355 1.31c-.476 1.748-.474 21.94.003 28.078l.378 4.878h-3.844c-2.648 0-3.907-.185-4.049-.595-1.226-3.562-1.65-19.923-.704-27.246.794-6.156.544-6.458 3.378-6.437zm61.25.012h3.578c2.997 0 3.62.136 3.827.833 1.757 5.921 1.76 30.198.006 33.038h-.001c-.134.217-1.859.395-3.832.395h-3.588l.33-5.354c.462-7.505.495-24.464.05-26.889zM67.77 103.182l3.705.14 3.705.14-.133 2.47c-.072 1.36-.292 3.073-.488 3.808-.329 1.238-.55 1.346-3.017 1.478-3.013.16-2.837.426-3.467-5.278zm-26.657.04c.328-.003.708.001 1.143.001h3.032l.708 3.828c.39 2.105.61 3.925.49 4.045-.119.12-1.047.218-2.061.218-1.805 0-1.873-.065-3.19-3.001-2.107-4.696-2.414-5.071-.122-5.091zm7.143.001h6.6l.31 2.975c.169 1.636.36 3.403.424 3.926.105.849-.2.967-2.818 1.092l-2.936.141-.538-2.758a2727.22 2727.22 0 0 1-.79-4.067zm9.458 0H64.853l.306 2.925c.168 1.61.305 3.43.305 4.046 0 1.061-.162 1.12-3.105 1.12-2.92 0-3.134-.075-3.584-1.259-.263-.692-.61-2.513-.77-4.045zm20.658 0h7.149l-.34 2.714c-.186 1.492-.483 3.26-.66 3.926-.3 1.122-.555 1.223-3.404 1.351-1.695.076-3.216.003-3.381-.161-.165-.165-.217-.977-.114-1.805l.468-3.764zm10.067 0h6.472l-.282 1.785a59.81 59.81 0 0 1-.804 3.926l-.52 2.142-3.04.143-3.038.143.31-1.545c.17-.85.442-2.682.605-4.07zm9.518 0h2.79c1.657 0 2.79.206 2.79.508 0 .279-.736 2.098-1.635 4.044-1.578 3.417-1.692 3.539-3.303 3.539-.918 0-1.768-.16-1.889-.357-.121-.196.11-2.017.513-4.045z"/><g transform="translate(47.02 49.285) scale(.53454)" fill="#005000"><path d="M46.75 2.5L7.779 25v45l1.29.746L46.75 92.5 85.721 70V25zm0 7.595c7.201 7.237 11.952 14.475 15.566 23.024-10.002 1.876-20.539 1.429-31.132 0 3.439-8.55 8.277-16.312 15.566-23.024zm-8.425 3.236c-2.779 7.36-6.433 13.846-12.8 18.932-4.644-.611-7.976-3.147-9.995-5.77 6.723-6.05 14.41-10.35 22.795-13.162zm16.851 0c8.998 3.25 16.246 7.373 22.794 13.16-2.019 2.71-5.438 4.634-9.995 5.77-6.016-6.047-10.02-12.182-12.799-18.93zm-42.23 17.635c4.82.96 7.89 2.884 9.997 5.77-.97 7.551-4.564 13.79-9.997 20.552-2.028-9.143-1.848-17.598 0-26.322zm67.608 0c1.547 8.96 1.423 17.982 0 26.324-4.996-6.68-8.07-13.064-9.997-20.553 2.544-3.062 5.614-5.073 9.995-5.771h.002zm-49.76 7.32c10.637-1.423 20.841-1.485 31.912 0-3.71 9.83-9.276 19.043-15.956 27.637-7.175-8.284-12.122-17.806-15.956-27.637zm-4.28 2.922c6.797 8.43 11.863 17.479 15.567 26.96-9.984.582-18.358.173-27.723-1.968 2.443-8.764 6.31-17.342 12.156-24.992zm40.472 0c5.97 8.021 9.961 16.228 12.157 24.992-9.634 2.494-17.479 3.025-27.722 1.968 3.703-9.729 8.459-18.468 15.565-26.96zM21.37 71.878c7.908-.573 14.95-.033 22.797 1.62 1.423 3.786 1.052 7.696 0 11.543-8.96-3.273-16.064-7.537-22.797-13.162zm50.763 0c-6.3 5.626-14.085 10.137-22.798 13.163-1.176-3.91-1.361-7.695 0-11.542 7.785-1.716 14.58-2.38 22.798-1.62z" overflow="visible"/></g></svg>
