<svg xmlns="http://www.w3.org/2000/svg" xmlns:xlink="http://www.w3.org/1999/xlink" width="458.714" height="458.714" viewBox="0 0 121.37 121.366"><defs><linearGradient id="e"><stop offset="0" stop-color="#393b3b"/><stop offset="1" stop-color="#444486"/></linearGradient><linearGradient id="h"><stop offset="0" stop-color="#003800"/><stop offset="1" stop-color="#3a913b"/></linearGradient><linearGradient id="f"><stop offset="0" stop-color="#6a3900"/><stop offset="1" stop-color="#966835"/></linearGradient><linearGradient id="g"><stop offset="0" stop-color="#919191"/><stop offset="1" stop-color="#2d2d78"/></linearGradient><clipPath id="b"/><clipPath id="a"/><clipPath id="c"/><clipPath id="d"/><linearGradient xlink:href="#e" id="i" gradientUnits="userSpaceOnUse" y1="458.714" x2="458.714"/><linearGradient xlink:href="#f" id="k" x1="146.125" y1="118.296" x2="145.613" y2="197.709" gradientUnits="userSpaceOnUse"/><linearGradient xlink:href="#f" id="l" gradientUnits="userSpaceOnUse" x1="109.221" y1="197.445" x2="110.663" y2="118.598"/><linearGradient xlink:href="#g" id="j" gradientUnits="userSpaceOnUse" x1="446" x2="19.714" y2="458.714"/><linearGradient xlink:href="#h" id="m" x1="10.561" y1="1002.362" x2="88.944" y2="1002.362" gradientUnits="userSpaceOnUse"/><linearGradient xlink:href="#h" id="n" gradientUnits="userSpaceOnUse" x1="50" y1="1047.362" x2="50" y2="957.362"/></defs><path d="M17.543 6.504c-2.297.015-4.654.338-6.244.537-2.537.317-4.064 1.357-4.356 3.914-.469 4.116-.128 8.644.412 12.746.492 3.733-4.631 1.245-4.578 4.28.061 3.45-.912 8.404.373 11.665.598 1.518 3.443-.118 4.278 1.231 1.8 2.911.552 8.969.615 12.205.03 1.51 1.22 8.567-.252 9.342C5.089 63.845.1 60.329.01 64.527-.068 68.15.367 71.74.4 75.355c.046 4.951 3.478 4.213 7.582 4.303 1.873.041 1.145 3.944 1.22 5.526.082 1.763.13 3.528.16 5.293.104 6.31.104 12.62.093 18.931-.011 6.746-.048 13.493-.148 20.238-.02 1.305.781 8.93-.842 9.409-1.21.356-3.515-.093-3.824 1.603-.348 1.905-.18 4.014-.205 5.938-.026 1.872-1.034 6.989.558 8.6 1.001 1.012 5.125.457 5.125 1.318 0 2.752.004 5.505.004 8.257.008 13.636.093 131.269.293 144.903.015 1.161.734 4.809-.162 5.68-1.43 1.39-1.97 1.149-3.885 1.326-.804.074-1.338.303-1.478 1.066-.646 3.524-.104 7.51-.037 11.06.032 1.767-.385 4.28 1.585 5.227 1.185.569 3.83-.342 3.887 1.36.067 2.013.087 4.028.115 6.043.063 4.4-.145 8.651.1 13.025.713 12.747.258 25.645.39 38.412.12 11.526.267 34.053.288 45.58.004 3.359.026 6.719.127 10.076.026.92-.355 3.462.65 4.104.918.585 3.394-2.123 3.397-2.992.007-1.911 6.847-5.392 8.53-6.518.327 2.955 4.631-1.406 4.626-2.393-.015-2.748-.03-5.497-.047-8.246-.015-2.915-.042-16.832-.037-19.748.004-1.216-.515-4.216.406-5.289 1.687-1.962 6.5 3.334 7.848 4.227 4.34 2.874 9.426 4.57 14.707 4.605 4.024.027 8.865-1.183 12.154-3.502 2.01-1.416 3.85-3.142 5.305-5.1a16.425 16.425 0 0 0 1.828-3.09c.445-.995.51-3.09 1.283-3.84 1.994-1.938-.986-9.222-2.121-11.017-2.204-3.483-5.845-5.542-10.014-5.638-3.902-.09-8.46.188-11.013 3.594-.878 1.17.078 3.644.746 4.693 1.198 1.883 3.244 1.057 5.22 1.486 3.711.806 5.038 5.518 1.41 7.485-3.996 2.166-9.312-.92-12.017-3.795-5.31-5.645-5.369-14.436-5.55-21.584-.086-3.357-1.036-7.585-.3-10.903.512-2.303 2.103-.997 3.8-.218 2.325 1.067 4.889 1.676 7.41 2.119 9.211 1.619 20.322-.505 26.468-8.033 1.756-2.152 3.67-4.653 5.094-7.418 2.068-4.019 2.331-7.41 2.318-11.858-.022-7.983-4.678-15.75-12.287-19.111-4.443-1.962-9.414-1.978-13.734.285-1.795.94-3.304 2.217-4.416 3.885-.86 1.29-2.894 4.061-2.79 5.676.206 3.172 5.428 5.84 8.307 4.343 1.53-.795.958-3.082 2.764-3.922 2.27-1.055 4.941-.364 6.756 1.198 6.223 5.355 3.511 14.879-2.522 19.02-6.955 4.773-18.077 2.152-23.85-3.325-2.55-2.42-5.71-9.303-3.345-12.582 1.181-1.638 4.25.23 5.184-1.465.521-.946.262-2.701.271-3.723.03-3.637.041-7.393-.492-11.002-.32-2.169-2.43-2.125-4.229-2.773-2.312-.833-1.718-3.594-1.785-5.613-.554-16.813-.117-137.653-1.013-154.457 1.486-.06 4.297.33 5.548-.655 2.038-1.603 1.014-7.573.997-9.646-.016-1.845.088-3.811-.235-5.639-.145-.822-3.006-.653-3.72-.824-3.51-.841.027-7.095.906-8.807 3.95-7.684 14.002-12.286 22.619-11.146 7.38.976 12.988 7.086 12.265 14.373-.3 3.035-2.76 7.634-6.796 6.773-3.869-.825-6.043-7.413-10.498-3.644-3.169 2.68-.394 8.592 2.156 10.84 3.103 2.736 6.752 4.732 11.12 4.703 9.573-.064 16.221-7.79 17.483-16.436 1.473-10.089-2.59-19.064-10.812-25.386-5.864-4.509-14.226-5.333-21.418-4.416-.665.084-7.328 1.768-7.201.771.355-2.8 5.536-6.666 7.562-8.47 2.766-2.464 5.801-4.658 9.104-6.397 2.057-1.084 6.9-3.972 9.336-3.02 1.315.514.846 2.708 1.82 3.645 1.597 1.537 4.99 1.215 6.996 1.228 2.188.016 5.685.58 7.672-.646 2.133-1.318 1.023-4.958 4.23-4.447 4.868.774 11.85 2.454 15.268 6.119 2.03 2.176 3.198 5.344.701 7.535-3.193 2.802-4.525-1.073-7.385-1.799-2.609-.662-5.09 1.24-4.816 3.76.056.511 2.094 7.44 2.492 6.922a3.2 3.2 0 0 1-.117-.987c.186-.1 3.859 2.971 4.646 3.272 1.677.64 3.3 1.043 5.102.945 3.907-.212 7.251-.955 10.484-3.21 7.452-5.2 5.128-17.128.475-23.098-1.149-1.474-2.477-2.83-3.84-4.118-1.143-1.08-3.141-2.103-3.908-3.455-.846-1.49 1.167-1.213 1.98-1.242 4.788-.17 9.583-.19 14.373-.23 11.823-.102 23.663-.228 35.485.02.945.018 1.966-.044 2.9.124 1.465.264 1.103 1.587 1.29 2.643.26 1.476 1.782 1.611 3.075 1.699 1.591.108 3.195.062 4.79.123l21.091.15.016.002c2.989.027 8.322.866 7.865-3.066-.363-3.132 4.998-1.904 7.264-1.941 5.443-.09 10.895-.19 16.34-.137 3.98.038 5.976-.217 6.459 3.74.212 1.744 3.82.895 5.379.895 3.2 0 6.402.016 9.603-.014.482-.008 1.194.053 1.947.076v17.082c-.2.352-.328 1.516-.328 1.516l.326 6.539-3.402-.049-.469 2.84-1.529.125c-1.265-.586-1.09-1.545-1.31-2.402l-.342-.844c-.535-1.12-1.043-.915-1.701-.125l-.266 1.342h-1.28c-.638 1.377-1.515 1.823-2.777.75-.473-.849-1.16-.78-1.326.062-1.357-.056-2.949.22-3.685-2.441.03-1.309-.637-.987-1.06-1.237l-.175-.793c-.846-.512-.826-2.152-3.178-.707v1.412l-.966.145-.407.875c-.417 1.662-1.638 2.029-2.777 2.527-1.817.742-3.775.683-5.71.748l-2.276.184c-.538.14-1.088.008-1.387.42-.33.61-.438 1.295-.18 2.14.286.547.397.436.842.428.568-.296 1.204-.18 1.828-.14 6.652.734 8.655 2.73 9.533 5.03.937.09 1.176.612 1.038 1.595 1.127 1.52 1.675.72 2.492.611.257-.522.542-.676.482-1.04-.054-.33-.153-.946.527-1.04l1.022-.125c-.55-2.522 1.592-2.61 3.42-2.98.496 1.033.954 2.288 1.963.244.45-.618 1.18-.252 1.853-.09l1.237 1.324c.226-.118.44-.36.705-.088.75.315.323.754.367 1.143.44.589.866 1.298 1.467.56l.75-2.715c.328-.738.746-.669 1.154-.685l1.53.125.091 15.433s5.12.406 5.025.22c-.093-.188-.687-2.061-.687-2.061l.291-10.694 15.15-.61 15.15.61.29 10.694s-.592 1.873-.686 2.06c-.093.187 5.024-.219 5.024-.219l.093-15.433 1.53-.125c.408.015.826-.053 1.154.685l.748 2.715c.601.738 1.027.027 1.467-.56.043-.39-.384-.828.367-1.143.266-.272.48-.03.707.088l1.236-1.324c.673-.162 1.404-.528 1.854.09 1.009 2.044 1.467.789 1.963-.245 1.828.371 3.97.46 3.42 2.98l1.02.126c.68.094.583.71.529 1.04-.06.364.224.518.482 1.04.817.108 1.363.91 2.49-.611-.138-.983.103-1.505 1.04-1.594.878-2.301 2.88-4.297 9.533-5.031.623-.04 1.26-.156 1.828.14.444.008.555.12.841-.427.259-.846.149-1.53-.181-2.141-.299-.41-.848-.281-1.385-.42l-2.275-.184c-1.936-.065-3.894-.007-5.711-.748-1.14-.498-2.36-.865-2.778-2.527l-.406-.875-.967-.145v-1.412c-2.351-1.445-2.331.196-3.177.707l-.176.793c-.423.25-1.092-.072-1.06 1.237-.737 2.66-2.327 2.385-3.684 2.441-.167-.841-.855-.91-1.328-.062-1.263 1.073-2.139.627-2.778-.75h-1.277l-.266-1.342c-.659-.79-1.167-.994-1.7.125l-.345.844c-.22.857-.045 1.816-1.31 2.402l-1.53-.125-.466-2.84-3.403.049.327-6.54s-.118-1.069-.305-1.466l.285-17.39c2.375.12 5.029-.223 7-.233 3.102-.015 7.196.56 10.193-.506 1.259-.447.916-1.706.989-2.742.206-2.966 12.979-1.747 14.623-1.773 4.013-.066 8.04-.185 12.054-.06 3.214.101 1.643 1.531 3.627 3.493 1.426 1.41 4.511 1.127 6.774 1.01l.011-.002.032-.002a22.64 22.64 0 0 1 1.074-.033c.019 0 .038.008.057.008l20.287-.424.007.008c2.8-.234 5.905.799 6.329-2.67.293-2.407 1.974-1.836 4.064-1.86 8.204-.091 16.409-.17 24.613-.254 14.3-.144 29.09 1.109 43.014-2.423 15.117-3.835 24.048-22.526 11.787-34.198-6.571-6.255-17.628-6.5-23.816.323-1.64 1.807-3.352 3.866-1.934 5.933 2.865 4.205 8.891-2.018 12.098 2.19 2.096 2.75.134 6.609-2.537 8.156-3.7 2.142-8.533 2.41-12.721 2.539-1.943.06-8.563 1.048-10.055-.82-1.134-1.421 1.682-5.613 2.229-6.778 3.253-6.931 5.528-15.484 2.056-22.877-4.17-8.883-11.283-14.093-21.183-15.826-9.038-1.582-18.612 4.088-23.152 11.328-1.61 2.568-3.357 8.277.21 10.168 5.634 2.986 6.485-3.64 9.649-6.053 7.763-5.92 20.334-1.056 20.375 8.916.04 9.652-7.27 16.772-16.197 19.903-4.307 1.51-8.914 1.95-13.465 2.025-1.416.027-2.833.008-4.248.012-1.99.001-1.453-.93-2.7-2.344-1.143-1.297-3.42-.92-4.99-.941-5.086-.072-10.175.017-15.261.072-3.588.039-7.208-.021-10.788.26-.991.077-2.604.083-3.171 1.066-.795 1.376-.212 2.17-2.157 2.233-1.61.051-3.222.12-4.834.088-3.32-.068-2.486-1.388-.945-3.348 5.575-7.091 8.632-18.577 2.51-26.186-5.992-7.447-16.418-8.889-24.83-4.314-2.712 1.474-8.163 6.472-5.787 9.681 4.448 6.01 7.788-.445 13.214-.359 4.702.075 7.963 3.312 6.364 7.774-1.497 4.173-5.705 6.545-10.09 6.86-1.34.097-3.66.356-3.945-1.392-.237-1.449-.98-3.25-2.788-3.38-4.458-.323-9.445.199-13.933.345-2.313.075-4.52.384-4.52 3.211 0 1.835-2.944 1.227-4.256 1.264-6.04.168-12.097.261-18.14.18-2.394-.035-2.38-.13-3.365-2.48-.919-2.189-4.767-1.643-6.65-1.669-2.83-.04-5.66-.055-8.49-.027-1.212.007-3.25-.324-4.138.746-.967 1.165-.036 2.794-.857 3.867-.955 1.246-4.592.429-5.815.268-4.165-.55-8.071-2.477-9.761-6.416-2.15-5.01 2.544-10.062 7.683-9.458 1.69.199 2.992 1.963 4.682 1.71 2.103-.316 2.733-2.997 2.975-4.667.533-3.684-5.81-6.388-8.717-6.972-8.764-1.763-18.065 3.601-20.522 12.033-1.848 6.343.244 13.223 4.59 18.082.957 1.07 4.415 3.7 3.922 5.256-.42 1.323-5.156.71-6.137.701-.613-.007-2.418.268-2.418-.72 0-.646-1.51-2.787-2.33-2.784l-14.947.057c-3.876.015-7.757-.008-11.63.105-1.42.041-3.928-.21-5.145.735-.764.592-.106 2.057-1.053 2.408-1.22.452-11.22 1.64-11.22-.738 0-1.28 2.06-3.256 2.884-4.116a23.213 23.213 0 0 0 4.08-5.834c1.34-2.74 2.356-6.463 1.853-9.47-1.325-7.929-6.202-13.384-14.168-15.328-4.019-.982-8.88.048-12.312 2.244-2.606 1.667-7.587 6.464-5.328 9.992 2.53 3.951 7.38-.008 10.402-.531 5.512-.959 7.195 3.584 3.951 7.478-3.004 3.606-7.836 5.488-12.38 6.44-2.015.421-11.038 2.569-11.977-.538-.549-1.815.69-3.361 1.314-4.97a45.521 45.521 0 0 0 1.88-6.07c1.015-4.329.95-8.937-1.012-13.012-3.682-7.645-11.856-11.457-19.948-12.895-9.57-1.7-20.24 3.1-22.8 12.682-.9 3.363.165 7.938 2.933 10.306 1.375 1.177 3.923.36 5.2-.539 1.399-.93 1.559-.85.882-2.336-4.388-9.635 12.508-11.421 17.125-4.658 5.372 7.87-1.34 18.303-9.492 21.051-2.864.966-11.318 3.907-11.318-1.139 0-4.253-9.729-2.54-12.653-2.466-1.155.026-4.31-.407-4.787 1.002-.21.619-.223 3.634-.695 4.058-.41.369-2.74.13-3.272.111-8.31-.28-16.082-1.644-23.664-5.066-1.255-.566-8.9-4.731-6.123-6.855 1.852-1.417 2.78-1.832 3.377-4.182.516-2.03.019-4.019-.252-6.065-.29-2.188-1.409-2.88-3.77-2.88-1.96 0-2.898-.865-1.8-2.645 2.847-4.616 8.818-5.388 13.37-2.672 1.727 1.032 2.43 2.949 2.11 4.877-.16.973-.613 1.936-1.402 2.58-.512.418-2.102.768-2.084 1.614.101 4.73 8.267 3.261 10.549 1.677 4.29-2.978 4.617-9.043 3.16-13.49-1.655-5.054-5.907-8.2-10.783-10.14-4.815-1.916-10.489-1.632-15.375.072-1.404.489-13.238 7.957-12.576 8.6-2.055-1.997 1.093-7.557-1.543-9.632-1.35-1.061-3.586-1.365-5.883-1.353h-.002zm8.293 40.408c.62.044 2.254 3.604 2.744 4.219a31.469 31.469 0 0 0 4.656 4.691c2.584 2.117 5.441 3.77 7.934 6.026l-.965.355c-2.042.754-5.057.33-7.187.303-2.546-.034-6.064.73-6.758-2.272-.286-1.235-.732-13.342-.424-13.32v-.002zM45.84 79.39c3.098.007 6.19.085 9.258.295.42.026 1.035.014 1.382.3 1.737 1.422-1.366 2.692-2.367 3.287-3.612 2.151-6.939 4.881-10.017 7.696-1.233 1.127-5.965 4.503-5.965 6.363 0 .816-1.837 2.086-2.324 2.598-1.151 1.21-2.065 2.576-3.041 3.916-1.473 2.021-2.98 6.854-5.06 8.103-.073.043-.335-4.068-.337-4.306-.026-3.712.022-7.423-.031-11.135-.08-5.612-.404-11.217-.522-16.828 5.861-.027 11.789-.266 17.694-.287.443-.002.887-.003 1.33-.002z" transform="matrix(.26459 0 0 .26459 0 -.002)" fill="url(#i)" stroke-width="1.89" stroke="url(#j)" stroke-linejoin="round"/><path d="M127.868 118.56c-13.925-.012-27.913.08-30.647.328l-1.763 3.274c-3.072 5.705-5.938 15.877-7.072 25.103-.647 5.264-.363 19.963.485 25.048 1.515 9.091 3.138 14.696 6.097 21.059l2.158 4.64h61.235l1.376-2.737c1.809-3.599 4.77-11.564 5.035-13.543.116-.862.526-3.066.913-4.898 3.923-18.598 1.6-40.744-5.722-54.53l-1.826-3.437c-2.482-.175-16.344-.293-30.269-.306zm10.607 2.83c2.68.022 2.566.391 3 4.84l.31 3.173-3.664.159c-2.173.093-3.721-.037-3.803-.319-.076-.262-.27-2.135-.434-4.164l-.296-3.688h3.557c.507 0 .947-.004 1.33-.001zm-10.562 0c3.195 0 3.097-.132 3.6 4.88l.322 3.211H123.978l.332-3.66c.182-2.013.439-3.834.57-4.046.13-.211 1.495-.384 3.033-.384zm-6.637.26c.762 0 .697.411.428 5.333l-.137 2.498h-7.582l.319-2.716c.176-1.494.442-3.208.593-3.808.282-1.125.218-1.111 6-1.295.145-.004.27-.012.379-.012zm-13.326.208c.307.002.662.009 1.074.009h2.98l-.507 3.688-.507 3.688-3.197.14c-3.543.157-3.466.25-2.704-3.233.9-4.122.713-4.31 2.861-4.292zm-9.126.009h4.138l-.704 3.807-.704 3.807h-3c-1.65 0-3-.121-3-.27 0-.147.736-1.86 1.635-3.806zm47.775 0h3.08l.59 2.974c.324 1.636.69 3.35.81 3.807.196.735-.169.833-3.076.833h-3.298l-.32-2.716c-.175-1.494-.442-3.208-.592-3.808-.265-1.053-.167-1.09 2.806-1.09zm8.13 0h2.13l1.472 3.535c.81 1.945 1.472 3.66 1.472 3.808 0 .15-1.258.271-2.794.271h-2.793l-.565-2.974c-.31-1.636-.675-3.35-.808-3.807-.206-.706.083-.833 1.886-.833zm-60.15 10.47h66.583l.583 2.6c.32 1.432.549 2.77.51 2.976-.033.165-11.606.855-26.076 1.114l4.145 2.393 2.906.028c0 .595-.004 1.082-.004 1.646l3.418 1.974-.074-3.69h6.495l.387 3.213c.503 4.183.516 25.87.016 28.793l-.385 2.26h-3.275c-1.8 0-3.383-.177-3.517-.394-.098-.159-.06-1.44.073-3.121l-3.325 1.92c.004.394.004.732.01 1.14a37.859 37.859 0 0 0-1.903-.047l-5.398 3.116 26.983.003-.243 1.19c-.133.655-.58 1.993-.994 2.974l-.75 1.784H94.672l-.736-1.475c-.405-.812-.863-2.152-1.018-2.979l-.283-1.502 28.165.003-4.747-2.741c-1.418-.043-2.648-.115-3.538-.24-.154-.248-.31-.999-.46-2.068l-2.774-1.602c.109 1.82.195 3.14.222 3.29.106.597-6.609.994-6.95.411-.444-.756-.893-8.826-.892-16.038 0-6.86.208-10.784.839-15.867l.25-2.023h6.681l-.32 2.999c-.042.379-.074.803-.109 1.211l3.047-1.758c.125-1.321.243-2.19.335-2.271.036-.032 1.778-.203 3.872-.38l.378.003 3.794-2.19-27.337-.708.28-1.757c.155-.966.49-2.305.744-2.974zm.083 9.03c.405.002.873.012 1.415.012h3.779l-.356 1.309c-.475 1.749-.473 21.941.004 28.078l.378 4.878h-3.844c-2.648 0-3.908-.185-4.049-.595-1.226-3.562-1.65-19.923-.704-27.246.794-6.156.544-6.458 3.378-6.437zm61.249.012h3.579c2.997 0 3.62.135 3.827.833 1.756 5.92 1.76 30.198.006 33.038h-.001c-.134.217-1.859.394-3.832.394h-3.588l.33-5.354c.462-7.505.494-24.464.05-26.888zm-31.875 45.646l3.705.14 3.705.139-.133 2.471c-.072 1.36-.292 3.072-.488 3.807-.329 1.238-.55 1.347-3.017 1.478-3.013.16-2.837.427-3.467-5.278zm-26.657.04c.327-.004.708 0 1.143 0h3.032l.708 3.828c.39 2.106.61 3.926.49 4.045-.12.12-1.047.218-2.062.218-1.804 0-1.872-.065-3.19-3-2.107-4.697-2.413-5.072-.121-5.092zm7.143 0h6.6l.31 2.975c.169 1.636.36 3.403.424 3.926.105.85-.2.967-2.818 1.093l-2.936.14-.538-2.758a2727.22 2727.22 0 0 1-.79-4.066zm9.458 0h7.138l.307 2.926c.168 1.609.305 3.43.305 4.045 0 1.062-.162 1.12-3.105 1.12-2.92 0-3.134-.075-3.584-1.259-.263-.692-.61-2.513-.77-4.045zm20.658 0h7.149l-.34 2.714c-.186 1.493-.484 3.26-.661 3.927-.298 1.121-.554 1.223-3.403 1.35-1.695.077-3.217.004-3.382-.161-.164-.165-.216-.977-.113-1.804l.468-3.765zm10.067 0h6.472l-.283 1.785a59.81 59.81 0 0 1-.803 3.926l-.52 2.142-3.04.144-3.038.142.31-1.545c.17-.85.442-2.682.605-4.07zm9.518 0h2.79c1.657 0 2.79.207 2.79.508 0 .279-.736 2.099-1.635 4.045-1.578 3.416-1.692 3.538-3.303 3.538-.918 0-1.768-.16-1.889-.357-.121-.196.11-2.016.513-4.045z" fill="url(#k)" stroke-width=".5" stroke="url(#l)" stroke-linejoin="round" transform="translate(-56.266 -83.842)"/><g transform="translate(47.02 49.285) scale(.53454)" fill="green" stroke-width="1.871"><path d="M50 957.362l-38.971 22.5v45l1.29.746L50 1047.362l38.971-22.5v-45zm0 7.595c7.201 7.237 11.952 14.475 15.566 23.025-10.002 1.875-20.539 1.428-31.132 0 3.439-8.55 8.277-16.313 15.566-23.025zm-8.425 3.236c-2.779 7.36-6.433 13.846-12.8 18.932-4.644-.611-7.976-3.147-9.995-5.77 6.723-6.05 14.41-10.35 22.795-13.162zm16.851 0c8.998 3.25 16.246 7.373 22.794 13.16-2.019 2.711-5.438 4.635-9.995 5.77-6.016-6.047-10.02-12.182-12.799-18.93zm-42.23 17.635c4.82.961 7.89 2.885 9.997 5.77-.97 7.551-4.564 13.79-9.997 20.552-2.028-9.142-1.848-17.598 0-26.322zm67.608 0c1.547 8.96 1.423 17.982 0 26.324-4.996-6.68-8.07-13.064-9.997-20.553 2.544-3.061 5.614-5.072 9.995-5.771h.002zm-49.76 7.32c10.637-1.423 20.841-1.485 31.912 0-3.71 9.831-9.276 19.043-15.956 27.637-7.175-8.284-12.122-17.806-15.956-27.637zm-4.28 2.922c6.797 8.43 11.863 17.479 15.567 26.96-9.984.582-18.358.174-27.723-1.967 2.443-8.764 6.31-17.343 12.156-24.993zm40.472 0c5.97 8.021 9.961 16.229 12.157 24.993-9.634 2.494-17.479 3.024-27.722 1.968 3.703-9.73 8.459-18.47 15.565-26.961zM24.62 1026.74c7.908-.574 14.95-.034 22.797 1.62 1.423 3.786 1.052 7.695 0 11.542-8.96-3.273-16.064-7.537-22.797-13.162zm50.763 0c-6.3 5.625-14.085 10.136-22.798 13.162-1.176-3.909-1.361-7.695 0-11.542 7.785-1.716 14.58-2.38 22.798-1.62z" style="line-height:normal;text-indent:0;text-align:start;text-decoration-line:none;text-decoration-style:solid;text-decoration-color:#000;text-transform:none;isolation:auto;mix-blend-mode:normal;marker:none" color="#000" font-weight="400" font-family="sans-serif" white-space="normal" overflow="visible" fill="url(#m)" stroke="url(#n)" stroke-width=".935" stroke-linejoin="round" stroke-miterlimit="2.5" transform="translate(-3.25 -954.862)"/></g></svg>